<?xml version="1.0" standalone="no"?>
<!DOCTYPE svg PUBLIC "-//W3C//DTD SVG 1.1//EN" "http://www.w3.org/Graphics/SVG/1.1/DTD/svg11.dtd" >
<svg xmlns="http://www.w3.org/2000/svg" xmlns:xlink="http://www.w3.org/1999/xlink" version="1.1">
<metadata></metadata>
<defs>
<font id="vin_sans_prosemi_bold" horiz-adv-x="880" >
<font-face units-per-em="2048" ascent="1638" descent="-410" />
<missing-glyph horiz-adv-x="450" />
<glyph unicode="&#xfb01;" horiz-adv-x="966" d="M20 983v102q0 41 41 41h103v41q0 119 73.5 193t192.5 74h74q41 0 41 -41v-103q0 -41 -41 -41h-74q-33 0 -52.5 -19.5t-19.5 -51.5v-52h146q41 0 41 -41v-102q0 -41 -41 -41h-146v-901q0 -41 -41 -41h-112q-41 0 -41 41v901h-103q-41 0 -41 41zM653 1303v90q0 29 17.5 45 t44.5 16h102q27 0 44.5 -16.5t17.5 -44.5v-90q0 -29 -17.5 -45.5t-44.5 -16.5h-102q-27 0 -44.5 16.5t-17.5 45.5zM670 41v1044q0 41 41 41h112q41 0 41 -41v-1044q0 -41 -41 -41h-112q-41 0 -41 41z" />
<glyph unicode="&#xfb02;" horiz-adv-x="964" d="M20 983v102q0 41 41 41h103v41q0 119 73.5 193t192.5 74h74q41 0 41 -41v-103q0 -41 -41 -41h-74q-33 0 -52.5 -19.5t-19.5 -51.5v-52h146q41 0 41 -41v-102q0 -41 -41 -41h-146v-901q0 -41 -41 -41h-112q-41 0 -41 41v901h-103q-41 0 -41 41zM668 41v1352q0 41 41 41 h112q41 0 41 -41v-1352q0 -41 -41 -41h-112q-41 0 -41 41z" />
<glyph unicode="&#xfb03;" horiz-adv-x="1531" d="M20 983v102q0 41 41 41h103v41q0 119 73.5 193t192.5 74h74q41 0 41 -41v-103q0 -41 -41 -41h-74q-33 0 -52.5 -19.5t-19.5 -51.5v-52h146q41 0 41 -41v-102q0 -41 -41 -41h-146v-901q0 -41 -41 -41h-112q-41 0 -41 41v901h-103q-41 0 -41 41zM586 983v102q0 41 41 41 h102v41q0 119 74 193t192 74h74q41 0 41 -41v-103q0 -41 -41 -41h-74q-33 0 -52 -19.5t-19 -51.5v-52h145q41 0 41 -41v-102q0 -41 -41 -41h-145v-901q0 -41 -41 -41h-113q-41 0 -41 41v901h-102q-41 0 -41 41zM1219 1303v90q0 29 17 45t44 16h102q27 0 44.5 -16.5 t17.5 -44.5v-90q0 -29 -17.5 -45.5t-44.5 -16.5h-102q-27 0 -44 16.5t-17 45.5zM1235 41v1044q0 41 41 41h113q41 0 41 -41v-1044q0 -41 -41 -41h-113q-41 0 -41 41z" />
<glyph unicode="&#xfb04;" horiz-adv-x="1529" d="M20 983v102q0 41 41 41h103v41q0 119 73.5 193t192.5 74h74q41 0 41 -41v-103q0 -41 -41 -41h-74q-33 0 -52.5 -19.5t-19.5 -51.5v-52h146q41 0 41 -41v-102q0 -41 -41 -41h-146v-901q0 -41 -41 -41h-112q-41 0 -41 41v901h-103q-41 0 -41 41zM586 983v102q0 41 41 41 h102v41q0 119 74 193t192 74h74q41 0 41 -41v-103q0 -41 -41 -41h-74q-33 0 -52 -19.5t-19 -51.5v-52h145q41 0 41 -41v-102q0 -41 -41 -41h-145v-901q0 -41 -41 -41h-113q-41 0 -41 41v901h-102q-41 0 -41 41zM1233 41v1352q0 41 41 41h112q41 0 41 -41v-1352 q0 -41 -41 -41h-112q-41 0 -41 41z" />
<glyph horiz-adv-x="0" />
<glyph horiz-adv-x="682" />
<glyph unicode=" "  horiz-adv-x="450" />
<glyph unicode="&#x09;" horiz-adv-x="450" />
<glyph unicode="&#xa0;" horiz-adv-x="450" />
<glyph unicode="!" horiz-adv-x="440" d="M102 61v123q0 29 16.5 45.5t45.5 16.5h112q27 0 44.5 -16.5t17.5 -45.5v-123q0 -29 -17.5 -45t-44.5 -16h-112q-29 0 -45.5 16t-16.5 45zM113 1372q0 29 17 45.5t44 16.5h92q29 0 45.5 -16.5t16.5 -45.5l-17 -901q0 -29 -16 -45t-45 -16h-60q-27 0 -44 16t-17 45z" />
<glyph unicode="&#x22;" horiz-adv-x="571" d="M82 1403q0 31 31 31h102q33 0 29 -31l-8 -389q0 -31 -31 -31h-82q-29 0 -33 31zM328 1403q0 31 30 31h103q33 0 28 -31l-8 -389q0 -31 -30 -31h-82q-29 0 -33 31z" />
<glyph unicode="#" horiz-adv-x="1218" d="M41 389v82q0 41 41 41h192l74 410h-164q-41 0 -41 41v81q0 41 41 41h193l53 308q6 41 49 41h84q39 0 33 -41l-53 -308h264l55 308q6 41 47 41h84q41 0 35 -41l-55 -308h164q41 0 41 -41v-81q0 -41 -41 -41h-193l-74 -410h164q41 0 41 -41v-82q0 -41 -41 -41h-192 l-56 -307q-6 -41 -47 -41h-84q-41 0 -34 41l55 307h-264l-54 -307q-6 -41 -49 -41h-84q-39 0 -32 41l53 307h-164q-41 0 -41 41zM440 512h265l73 410h-264z" />
<glyph unicode="$" horiz-adv-x="843" d="M55 285v125q0 41 41 41h123q41 0 41 -41v-134q0 -37 22.5 -59t59.5 -22h154q37 0 59.5 22.5t22.5 58.5v142q0 41 -31 67l-371 330q-45 39 -72.5 100.5t-27.5 120.5v111q0 125 73.5 206t194.5 89v145q0 41 41 41h82q41 0 41 -41v-143q123 -8 197.5 -89t74.5 -208v-123 q0 -41 -41 -41h-123q-41 0 -41 41v133q0 37 -22.5 59.5t-58.5 22.5h-132q-37 0 -59 -22.5t-22 -59.5v-121q0 -41 30 -67l371 -330q45 -39 72.5 -100.5t27.5 -120.5v-133q0 -127 -74.5 -208t-199.5 -89v-144q0 -41 -41 -41h-82q-41 0 -41 41v144q-131 4 -210 85t-79 212z" />
<glyph unicode="%" horiz-adv-x="1593" d="M82 920v254q0 121 73.5 195.5t194.5 74.5h29q121 0 195.5 -75t74.5 -195v-254q0 -121 -74.5 -196t-195.5 -75h-29q-121 0 -194.5 75t-73.5 196zM244 903q0 -41 25.5 -65.5t66.5 -24.5h59q39 0 64.5 25.5t25.5 64.5v287q0 39 -25.5 64.5t-64.5 25.5h-59q-41 0 -66.5 -24.5 t-25.5 -65.5v-287zM262 98l934 1332q8 14 25 14q8 0 16 -6l84 -60q25 -16 8 -43l-932 -1331q-8 -14 -24 -14q-8 0 -19 6l-84 59q-24 16 -8 43zM944 260v254q0 121 74 195.5t194 74.5h29q121 0 195.5 -74.5t74.5 -195.5v-254q0 -121 -74.5 -195.5t-195.5 -74.5h-29 q-121 0 -194.5 74.5t-73.5 195.5zM1106 244q0 -41 25.5 -65.5t66.5 -24.5h59q41 0 66 25.5t25 64.5v286q0 39 -25 65t-66 26h-59q-41 0 -66.5 -25t-25.5 -66v-286z" />
<glyph unicode="&#x26;" horiz-adv-x="1007" d="M82 1014v133q0 133 82 215t215 82h145q133 0 215 -82t82 -215v-76q0 -41 -41 -41h-123q-41 0 -41 41v86q0 37 -22 59.5t-59 22.5h-166q-37 0 -59.5 -22.5t-22.5 -59.5v-205q0 -37 22.5 -59.5t59.5 -22.5h567q41 0 41 -41v-122q0 -41 -41 -41h-105v-379q0 -133 -81.5 -215 t-214.5 -82h-154q-133 0 -215 82t-82 215v235q0 164 117 246q-119 82 -119 246zM289 276q0 -37 22.5 -59t59.5 -22h174q37 0 59.5 22.5t22.5 58.5v390h-258q-35 0 -57.5 -22.5t-22.5 -59.5v-308z" />
<glyph unicode="'" horiz-adv-x="325" d="M82 1403q0 31 31 31h102q33 0 29 -31l-8 -389q0 -31 -31 -31h-82q-29 0 -33 31z" />
<glyph unicode="(" horiz-adv-x="501" d="M102 72v1085q0 143 97 250l108 117q8 10 23 10q12 0 20 -8l101 -82q20 -20 2 -43l-84 -94q-61 -68 -62 -160v-1065q0 -92 62 -160l84 -94q18 -23 -2 -43l-101 -82q-8 -8 -20 -8q-14 0 -23 10l-108 117q-96 106 -97 250z" />
<glyph unicode=")" horiz-adv-x="501" d="M49 -172l84 94q61 68 62 160v1065q0 92 -62 160l-84 94q-21 23 4 43l99 82q8 8 20 8q14 0 23 -10l108 -117q96 -106 96 -250v-1085q0 -143 -96 -250l-108 -117q-8 -10 -23 -10q-12 0 -20 8l-99 82q-25 20 -4 43z" />
<glyph unicode="*" horiz-adv-x="784" d="M33 1135l33 98q6 20 24 20q4 0 12 -4l228 -92l-19 246q0 31 29 31h102q33 0 29 -31l-18 -246l227 94q12 4 14 4q18 0 25 -20l33 -98q10 -27 -19 -37l-241 -58l159 -188q18 -23 -6 -41l-84 -61q-8 -6 -16 -7q-16 0 -25 15l-129 209l-129 -209q-8 -14 -22 -15q-10 0 -19 7 l-84 59q-27 18 -4 41l158 188l-238 58q-31 10 -20 37z" />
<glyph unicode="+" d="M102 676v102q0 41 41 41h205v205q0 41 41 41h103q41 0 40 -41v-205h205q41 0 41 -41v-102q0 -41 -41 -41h-205v-205q0 -41 -40 -41h-103q-41 0 -41 41v205h-205q-41 0 -41 41z" />
<glyph unicode="," horiz-adv-x="403" d="M82 -154l31 338q4 29 22.5 45.5t44.5 16.5h92q27 0 40.5 -16.5t6.5 -43.5l-77 -342q-10 -49 -62 -49h-51q-51 0 -47 51z" />
<glyph unicode="-" horiz-adv-x="573" d="M82 573v103q0 31 31 31h348q31 0 31 -31v-103q0 -31 -31 -30h-348q-31 -1 -31 30z" />
<glyph unicode="." horiz-adv-x="399" d="M82 61v123q0 29 16.5 45.5t44.5 16.5h113q27 0 44 -16.5t17 -45.5v-123q0 -29 -17 -45t-44 -16h-113q-29 0 -45 16t-16 45z" />
<glyph unicode="/" horiz-adv-x="794" d="M2 -229l637 1745q6 20 29 20q6 0 10 -2l96 -37q29 -10 19 -39l-637 -1745q-6 -20 -29 -20q-6 0 -10 2l-97 37q-28 10 -18 39z" />
<glyph unicode="0" horiz-adv-x="890" d="M72 328v778q0 152 93 245t245 93h71q152 0 245 -93.5t93 -244.5v-778q0 -152 -93 -245t-245 -93h-71q-152 0 -245 93t-93 245zM276 307q0 -51 31 -81.5t82 -30.5h113q51 0 81.5 30.5t30.5 81.5v819q0 51 -30.5 82t-81.5 31h-113q-51 0 -82 -31t-31 -82v-819z" />
<glyph unicode="1" horiz-adv-x="667" d="M41 1137v127q0 43 39 55l256 100q43 14 80 15h47q41 0 41 -41v-1352q0 -41 -41 -41h-123q-41 0 -41 41v1157l-219 -88q-6 -2 -17 -2q-23 0 -22 29z" />
<glyph unicode="2" horiz-adv-x="835" d="M72 1024v82q0 152 93 245t245 93h18q152 0 245 -93.5t93 -244.5v-234q0 -59 -28.5 -118.5t-75.5 -96.5l-345 -274q-33 -23 -32 -66v-112h448q41 0 41 -41v-123q0 -41 -41 -41h-612q-41 0 -41 41v283q0 59 28.5 118.5t75.5 96.5l344 274q33 23 33 66v247q0 51 -30.5 82 t-81.5 31h-60q-51 0 -82 -30.5t-31 -82.5v-102q0 -41 -40 -41h-123q-41 0 -41 41z" />
<glyph unicode="3" horiz-adv-x="862" d="M61 1044v62q0 152 93.5 245t244.5 93h52q152 0 244.5 -93.5t92.5 -244.5v-123q0 -158 -131 -244q142 -79 142 -247v-164q0 -152 -93.5 -245t-244.5 -93h-60q-152 0 -245 93t-93 245v61q0 41 41 41h123q41 0 41 -41v-82q0 -51 31 -81.5t82 -30.5h100q51 0 82 30.5t31 81.5 v215q0 51 -31 82t-82 31h-106q-41 0 -41 41v123q0 41 41 41h92q53 0 85 30.5t32 81.5v174q0 51 -31 82t-82 31h-92q-51 0 -82 -30.5t-31 -82.5v-82q0 -41 -41 -40h-123q-41 0 -41 40z" />
<glyph unicode="4" horiz-adv-x="923" d="M31 313v62q0 41 16 78l391 944q16 37 58 37h139q41 0 24 -37l-380 -920h276v303q0 41 41 41h123q41 0 41 -41v-303h102q41 0 41 -41v-123q0 -41 -41 -41h-102v-231q0 -41 -41 -41h-123q-41 0 -41 41v231h-483q-41 0 -41 41z" />
<glyph unicode="5" horiz-adv-x="884" d="M72 328v71q0 31 30 31h144q31 0 30 -31v-92q0 -51 31 -81.5t82 -30.5h96q51 0 82 30.5t31 81.5v314q0 51 -31.5 81.5t-83.5 30.5h-309q-41 0 -41 41v619q0 41 41 41h528q31 0 31 -31v-143q0 -31 -31 -31h-364v-291h121q156 0 250 -93t94 -245v-272q0 -152 -93.5 -245 t-244.5 -93h-55q-152 0 -245 93t-93 245z" />
<glyph unicode="6" horiz-adv-x="890" d="M72 328v778q0 152 93 245t245 93h51q152 0 245 -93.5t93 -244.5v-21q0 -41 -41 -41h-123q-41 0 -41 41v41q0 51 -31 82t-82 31h-92q-51 0 -82 -30.5t-31 -82.5v-254q61 23 134 23h71q152 0 245 -93t93 -245v-229q0 -152 -93 -245t-245 -93h-71q-152 0 -245 93t-93 245z M276 307q0 -51 31 -81.5t82 -30.5h113q51 0 81.5 30.5t30.5 81.5v271q0 51 -30.5 81.5t-81.5 30.5h-113q-51 0 -82 -30.5t-31 -81.5v-271z" />
<glyph unicode="7" horiz-adv-x="770" d="M20 1280v113q0 41 41 41h627q41 0 41 -41v-88q0 -37 -14 -80l-258 -656q-14 -43 -15 -80v-448q0 -41 -41 -41h-122q-41 0 -41 41v500q0 37 14 80l248 618h-439q-41 0 -41 41z" />
<glyph unicode="8" horiz-adv-x="876" d="M61 328v188q0 174 148 252q-125 84 -125 240v98q0 152 93 245t245 93h35q152 0 245 -93.5t93 -244.5v-98q0 -158 -125 -240q145 -78 145 -252v-188q0 -152 -93 -245t-245 -93h-78q-152 0 -245 93t-93 245zM266 297q0 -51 31 -82t82 -31h119q51 0 81.5 31t30.5 82v250 q0 51 -30.5 81.5t-79.5 30.5h-121q-51 0 -82 -30.5t-31 -81.5v-250zM289 977q0 -51 30.5 -82t81.5 -31h78q49 0 80 31t31 82v160q0 51 -31 81.5t-82 30.5h-76q-51 0 -81.5 -30.5t-30.5 -81.5v-160z" />
<glyph unicode="9" d="M72 328v20q0 41 41 41h123q41 0 40 -41v-41q0 -51 31 -81.5t82 -30.5h103q51 0 81.5 30.5t30.5 81.5v264q-61 -23 -133 -22h-61q-152 0 -245 93t-93 245v219q0 152 93 245t245 93h61q152 0 245 -93.5t93 -244.5v-778q0 -152 -93 -245t-245 -93h-61q-152 0 -245 93 t-93 245zM276 866q0 -51 31 -81.5t82 -30.5h103q51 0 81.5 30.5t30.5 81.5v260q0 51 -30.5 82t-81.5 31h-103q-51 0 -82 -30.5t-31 -82.5v-260z" />
<glyph unicode=":" horiz-adv-x="405" d="M82 61v123q0 29 16.5 45.5t44.5 16.5h113q27 0 44 -16.5t17 -45.5v-123q0 -29 -17 -45t-44 -16h-113q-29 0 -45 16t-16 45zM88 942v123q0 29 17.5 45t44.5 16h112q29 0 45.5 -16t16.5 -45v-123q0 -29 -16.5 -45t-45.5 -16h-112q-27 0 -44.5 16t-17.5 45z" />
<glyph unicode=";" horiz-adv-x="405" d="M82 -154l31 338q4 29 22.5 45.5t44.5 16.5h92q27 0 40.5 -16.5t6.5 -43.5l-77 -342q-10 -49 -62 -49h-51q-51 0 -47 51zM88 942v123q0 29 17.5 45t44.5 16h112q29 0 45.5 -16t16.5 -45v-123q0 -29 -16.5 -45t-45.5 -16h-112q-27 0 -44.5 16t-17.5 45z" />
<glyph unicode="&#x3c;" d="M102 716.5q0 41.5 35 61.5l531 303q12 6 22 6q20 0 33 -20l49 -90q21 -35 -14 -55l-359 -205l359 -205q35 -20 14 -55l-49 -90q-12 -20 -33 -21q-10 0 -22 6l-531 303q-35 20 -35 61.5z" />
<glyph unicode="=" d="M102 512v102q0 41 41 41h594q41 0 41 -41v-102q0 -41 -41 -41h-594q-41 0 -41 41zM102 840v102q0 41 41 41h594q41 0 41 -41v-102q0 -41 -41 -41h-594q-41 0 -41 41z" />
<glyph unicode="&#x3e;" d="M109 457q-20 35 14 55l358 205l-358 205q-35 20 -14 55l49 90q12 20 35 20q12 0 20 -6l530 -303q35 -20 35 -61t-35 -62l-530 -303q-8 -6 -20 -6q-23 0 -35 21z" />
<glyph unicode="?" horiz-adv-x="796" d="M51 1020v127q0 133 82 215t215 82h80q133 0 215 -82t82 -215v-225q0 -133 -96 -224l-109 -102q-33 -33 -33 -70l-6 -75q0 -41 -43 -41h-102q-39 0 -43 41l-2 69q-6 131 90 225l111 105q29 29 28 70v237q0 37 -22.5 59.5t-59.5 22.5h-100q-37 0 -59.5 -22.5t-22.5 -59.5 v-137q0 -41 -41 -41h-123q-41 0 -41 41zM270 61v123q0 29 16.5 45.5t45.5 16.5h112q27 0 44.5 -16.5t17.5 -45.5v-123q0 -29 -17.5 -45t-44.5 -16h-112q-29 0 -45.5 16t-16.5 45z" />
<glyph unicode="@" horiz-adv-x="1536" d="M92 328v471q0 221 135 356t357 135h368q221 0 356.5 -135t135.5 -356v-434q0 -119 -69.5 -192t-184.5 -73h-39q-160 0 -219 138q-178 -115 -287 -115q-96 0 -163.5 75.5t-67.5 194.5v340q0 119 67.5 195t163.5 76q98 -1 260 -97v35q0 41 41 41h113q41 0 41 -41v-577 q0 -41 19.5 -66t49.5 -25h41q31 0 50.5 25t19.5 66v434q0 147 -90 237t-238 90h-368q-147 0 -237.5 -90t-90.5 -237v-471q0 -147 90 -237.5t238 -90.5h368q41 0 41 -41v-82q0 -41 -41 -41h-368q-221 0 -356.5 135t-135.5 357zM608 391q0 -43 27 -63.5t59 -20.5q72 0 211 111 v291q-139 111 -211 110q-33 0 -59.5 -20.5t-26.5 -63.5v-344z" />
<glyph unicode="A" horiz-adv-x="905" d="M23 39l337 1356q10 39 52 39h82q41 0 51 -39l338 -1356q10 -39 -31 -39h-129q-41 0 -51 39l-45 194h-351l-45 -194q-6 -39 -49 -39h-129q-41 0 -30 39zM324 438h256l-113 494q-12 53 -12 121h-4q0 -70 -13 -121z" />
<glyph unicode="B" horiz-adv-x="899" d="M113 41v1352q0 41 41 41h348q133 0 215 -82t82 -215v-164q0 -150 -101 -232q141 -80 142 -260v-184q0 -133 -82 -215t-215 -82h-389q-41 0 -41 41zM317 205h236q37 0 59.5 22.5t22.5 59.5v256q0 37 -22.5 59.5t-59.5 22.5h-236v-420zM317 829h195q37 0 59.5 22.5 t22.5 59.5v236q0 37 -22.5 59.5t-59.5 22.5h-195v-400z" />
<glyph unicode="C" horiz-adv-x="901" d="M92 287v860q0 133 82 215t215 82h133q133 0 215 -82t82 -215v-123q0 -41 -41 -41h-123q-41 0 -41 41v133q0 37 -22.5 59.5t-59.5 22.5h-153q-37 0 -59.5 -22.5t-22.5 -59.5v-881q0 -37 22.5 -59t59.5 -22h153q37 0 59.5 22.5t22.5 58.5v134q0 41 41 41h123q41 0 41 -41 v-123q0 -133 -82 -215t-215 -82h-133q-133 0 -215 82t-82 215z" />
<glyph unicode="D" horiz-adv-x="921" d="M113 41v1352q0 41 41 41h378q133 0 215 -82t82 -215v-840q0 -133 -81.5 -215t-215.5 -82h-378q-41 0 -41 41zM317 205h226q37 0 59.5 22.5t22.5 59.5v860q0 37 -22.5 59.5t-59.5 22.5h-226v-1024z" />
<glyph unicode="E" horiz-adv-x="757" d="M113 41v1352q0 41 41 41h512q41 0 41 -41v-123q0 -41 -41 -41h-349v-471h256q41 0 41 -41v-123q0 -41 -41 -41h-256v-348h349q41 0 41 -41v-123q0 -41 -41 -41h-512q-41 0 -41 41z" />
<glyph unicode="F" horiz-adv-x="747" d="M113 41v1352q0 41 41 41h512q41 0 41 -41v-123q0 -41 -41 -41h-349v-471h256q41 0 41 -41v-123q0 -41 -41 -41h-256v-512q0 -41 -41 -41h-122q-41 0 -41 41z" />
<glyph unicode="G" horiz-adv-x="901" d="M92 287v860q0 133 82 215t215 82h143q133 0 215 -82t82 -215v-123q0 -41 -41 -41h-122q-41 0 -41 41v133q0 37 -22.5 59.5t-59.5 22.5h-164q-37 0 -59.5 -22.5t-22.5 -59.5v-881q0 -37 22.5 -59t59.5 -22h164q37 0 59.5 22.5t22.5 58.5v287h-144q-41 0 -41 41v123 q0 41 41 41h307q41 0 41 -41v-440q0 -133 -81.5 -215t-215.5 -82h-143q-133 0 -215 82t-82 215z" />
<glyph unicode="H" horiz-adv-x="942" d="M113 41v1352q0 41 41 41h122q41 0 41 -41v-635h308v635q0 41 41 41h122q41 0 41 -41v-1352q0 -41 -41 -41h-122q-41 0 -41 41v512h-308v-512q0 -41 -41 -41h-122q-41 0 -41 41z" />
<glyph unicode="I" horiz-adv-x="614" d="M61 41v113q0 41 41 41h103v1044h-103q-41 0 -41 41v113q0 41 41 41h410q41 0 41 -41v-113q0 -41 -41 -41h-102v-1044h102q41 0 41 -41v-113q0 -41 -41 -41h-410q-41 0 -41 41z" />
<glyph unicode="J" horiz-adv-x="808" d="M31 287v80q0 41 41 41h123q41 0 41 -41v-91q0 -37 22.5 -59t58.5 -22h113q37 0 59.5 22.5t22.5 58.5v963h-164q-41 0 -41 41v113q0 41 41 41h328q41 0 41 -41v-1106q0 -133 -82 -215t-215 -82h-92q-133 0 -215 82t-82 215z" />
<glyph unicode="K" horiz-adv-x="882" d="M113 41v1352q0 41 41 41h122q41 0 41 -41v-580l277 584q20 37 59 37h146q43 0 22 -37l-307 -649l344 -711q20 -37 -22 -37h-146q-39 0 -59 37l-314 647v-643q0 -41 -41 -41h-122q-41 0 -41 41z" />
<glyph unicode="L" horiz-adv-x="716" d="M113 41v1352q0 41 41 41h122q41 0 41 -41v-1186h328q41 0 41 -41v-125q0 -41 -41 -41h-491q-41 0 -41 41z" />
<glyph unicode="M" horiz-adv-x="1146" d="M113 41v1352q0 41 41 41h143q39 0 53 -39l205 -631q16 -59 16 -121h4q0 61 17 121l205 631q14 39 53 39h143q41 0 41 -41v-1352q0 -41 -41 -41h-112q-41 0 -41 41v856q0 51 12 121l-4 2q-10 -66 -27 -119l-174 -555q-10 -39 -53 -39h-41q-43 0 -53 39l-174 555 q-16 53 -27 119l-4 -2q12 -70 12 -121v-856q0 -41 -41 -41h-112q-41 0 -41 41z" />
<glyph unicode="N" horiz-adv-x="952" d="M113 41v1352q0 41 41 41h82q41 0 57 -37l319 -772q16 -49 33 -119l4 2q-14 61 -14 121v764q0 41 41 41h123q41 0 41 -41v-1352q0 -41 -41 -41h-82q-41 0 -58 37l-317 764q-18 45 -35 119l-4 -2q14 -62 14 -121v-756q0 -41 -41 -41h-122q-41 0 -41 41z" />
<glyph unicode="O" horiz-adv-x="942" d="M92 287v860q0 133 82 215t215 82h164q133 0 215 -82t82 -215v-860q0 -133 -82 -215t-215 -82h-164q-133 0 -215 82t-82 215zM297 276q0 -37 22.5 -59t59.5 -22h184q37 0 59.5 22.5t22.5 58.5v881q0 37 -22.5 59.5t-59.5 22.5h-184q-37 0 -59.5 -22.5t-22.5 -59.5v-881z " />
<glyph unicode="P" horiz-adv-x="849" d="M113 41v1352q0 41 41 41h358q133 0 215 -82t82 -215v-287q0 -133 -82 -215t-215 -82h-195v-512q0 -41 -41 -41h-122q-41 0 -41 41zM317 758h205q37 0 59.5 22.5t22.5 59.5v307q0 37 -22.5 59.5t-59.5 22.5h-205v-471z" />
<glyph unicode="Q" horiz-adv-x="942" d="M92 297v850q0 133 82 215t215 82h164q133 0 215 -82t82 -215v-850q0 -127 -74 -207t-196 -90v-18q0 -33 19 -52.5t52 -19.5h74q41 0 41 -41v-102q0 -41 -41 -41h-74q-119 0 -192.5 73.5t-73.5 192.5v8q-131 2 -212 83t-81 214zM297 287q0 -37 22.5 -59.5t59.5 -22.5h184 q37 0 59.5 22.5t22.5 59.5v870q0 37 -22.5 59.5t-59.5 22.5h-184q-37 0 -59.5 -22.5t-22.5 -59.5v-870z" />
<glyph unicode="R" horiz-adv-x="894" d="M113 41v1352q0 41 41 41h358q133 0 215 -82t82 -215v-287q0 -176 -131 -254l153 -557q10 -39 -30 -39h-129q-41 0 -51 39l-142 514h-162v-512q0 -41 -41 -41h-122q-41 0 -41 41zM317 758h205q37 0 59.5 22.5t22.5 59.5v307q0 37 -22.5 59.5t-59.5 22.5h-205v-471z" />
<glyph unicode="S" horiz-adv-x="843" d="M55 285v125q0 41 41 41h123q41 0 41 -41v-134q0 -37 22.5 -59t59.5 -22h154q37 0 59.5 22.5t22.5 58.5v142q0 41 -31 67l-371 330q-45 39 -72.5 100.5t-27.5 120.5v111q0 133 82 215t215 82h110q133 0 215 -82t82 -215v-123q0 -41 -41 -41h-123q-41 0 -41 41v133 q0 37 -22.5 59.5t-58.5 22.5h-132q-37 0 -59 -22.5t-22 -59.5v-121q0 -41 30 -67l371 -330q45 -39 72.5 -100.5t27.5 -120.5v-133q0 -133 -82 -215t-215 -82h-133q-133 0 -215 82t-82 215z" />
<glyph unicode="T" horiz-adv-x="778" d="M20 1270v123q0 41 41 41h656q41 0 41 -41v-123q0 -41 -41 -41h-225v-1188q0 -41 -41 -41h-123q-41 0 -41 41v1188h-226q-41 0 -41 41z" />
<glyph unicode="U" horiz-adv-x="921" d="M92 287v1106q0 41 41 41h123q41 0 41 -41v-1117q0 -37 22.5 -59t59.5 -22h164q37 0 59.5 22.5t22.5 58.5v1117q0 41 41 41h122q41 0 41 -41v-1106q0 -133 -81.5 -215t-215.5 -82h-143q-133 0 -215 82t-82 215z" />
<glyph unicode="V" horiz-adv-x="884" d="M23 1395q-10 39 30 39h131q43 0 49 -41l197 -891q10 -57 10 -121h4q0 63 11 121l196 891q6 41 49 41h131q41 0 31 -39l-327 -1356q-10 -39 -52 -39h-82q-41 0 -51 39z" />
<glyph unicode="W" horiz-adv-x="1247" d="M20 1393q-1 5 -1 10q0 31 36 31h127q41 0 47 -41l138 -848q8 -49 8 -123h4q0 74 8 123l139 848q6 41 49 41h99q41 0 47 -41l141 -848q8 -49 8 -123h4q0 68 7 123l137 848q6 41 49 41h127q39 0 33 -41l-262 -1352q-6 -41 -47 -41h-87q-43 0 -49 41l-147 813q-8 49 -8 123 h-4q0 -76 -11 -123l-147 -813q-6 -41 -47 -41h-86q-43 0 -49 41z" />
<glyph unicode="X" horiz-adv-x="839" d="M25 39l284 709l-258 647q-16 39 25 39h139q43 0 55 -39l127 -330q20 -47 21 -119h4q0 72 20 119l127 330q13 39 56 39h139q39 0 27 -39l-259 -647l285 -709q12 -39 -26 -39h-140q-43 0 -55 39l-154 391q-20 49 -20 119h-4q0 -70 -21 -119l-153 -391q-12 -39 -56 -39h-139 q-41 0 -24 39z" />
<glyph unicode="Y" horiz-adv-x="837" d="M23 1395q-6 16 2 27.5t26 11.5h131q39 0 54 -39l163 -480q18 -51 19 -118h4q0 63 16 118l164 480q14 39 55 39h131q41 0 27 -39l-293 -842v-512q0 -41 -41 -41h-123q-41 0 -41 41v512z" />
<glyph unicode="Z" horiz-adv-x="761" d="M51 41v123q0 41 17 78l419 987h-385q-41 0 -41 41v123q0 41 41 41h568q41 0 41 -41v-123q0 -41 -17 -78l-420 -987h385q41 0 41 -41v-123q0 -41 -41 -41h-567q-41 0 -41 41z" />
<glyph unicode="[" horiz-adv-x="491" d="M102 -276v1781q0 31 31 31h307q31 0 31 -31v-123q0 -31 -31 -30h-133v-1475h133q31 0 31 -31v-122q0 -31 -31 -31h-307q-31 0 -31 31z" />
<glyph unicode="\" horiz-adv-x="794" d="M2 1458q-10 29 18 39l97 37q4 2 10 2q23 0 29 -20l637 -1745q10 -29 -19 -39l-96 -37q-4 -2 -10 -2q-23 0 -29 20z" />
<glyph unicode="]" horiz-adv-x="491" d="M20 -154q0 31 31 31h133v1475h-133q-31 0 -31 30v123q0 31 31 31h307q31 0 31 -31v-1781q0 -31 -31 -31h-307q-31 0 -31 31v122z" />
<glyph unicode="^" d="M115 1112q-29 29 0 57l235 236q29 29 70 29h41q41 0 69 -29l234 -234q33 -29 0 -57l-72 -74q-12 -12 -28 -12q-17 0 -31 12l-193 193l-194 -195q-12 -12 -29 -12q-12 0 -29 12z" />
<glyph unicode="_" horiz-adv-x="450" d="M0 -102h451v-205h-451v205z" />
<glyph unicode="`" horiz-adv-x="401" d="M49 1610q-23 23 8 22h170q31 1 45 -26l84 -156q12 -27 -16 -27h-78q-33 0 -51 23z" />
<glyph unicode="a" horiz-adv-x="860" d="M82 250v176q0 123 75.5 196.5t207.5 73.5q68 0 198 -16v170q0 102 -82 102h-112q-82 0 -82 -102v-21q0 -41 -41 -41h-113q-41 0 -41 41v41q0 121 73 194t193 73h134q119 0 192.5 -73t73.5 -194v-829q0 -41 -41 -41h-113q-41 0 -41 41v35q-141 -96 -250 -96 q-96 0 -163.5 75.5t-67.5 194.5zM276 248q0 -43 27 -63.5t59 -20.5h1q76 0 200 108v236q-124 22 -166 22h-4q-51 0 -84 -27.5t-33 -74.5v-180z" />
<glyph unicode="b" horiz-adv-x="870" d="M102 41v1352q0 41 41 41h113q41 0 41 -41v-342q162 96 260 96q96 0 163.5 -76t67.5 -194v-627q0 -119 -67.5 -194.5t-163.5 -75.5q-98 0 -260 96v-35q0 -41 -41 -41h-113q-41 0 -41 41zM297 274q136 -110 210 -110h1q33 0 59.5 20.5t26.5 63.5v631q0 43 -26.5 63.5 t-59.5 20.5q-74 0 -211 -111v-578z" />
<glyph unicode="c" horiz-adv-x="808" d="M82 256v614q0 121 73.5 194t192.5 73h133q121 0 194 -73t73 -194v-92q0 -41 -41 -41h-113q-41 0 -41 41v103q0 33 -19.5 52t-52.5 19h-133q-33 0 -52.5 -19.5t-19.5 -51.5v-635q0 -33 19.5 -52.5t52.5 -19.5h133q33 0 52.5 19.5t19.5 52.5v102q0 41 41 41h113 q41 0 41 -41v-92q0 -121 -73 -193.5t-194 -72.5h-133q-119 0 -192.5 72.5t-73.5 193.5z" />
<glyph unicode="d" horiz-adv-x="870" d="M82 250v627q0 119 67.5 194.5t163.5 75.5q98 0 260 -96v342q0 41 41 41h113q41 0 41 -41v-1352q0 -41 -41 -41h-113q-41 0 -41 41v35q-162 -96 -260 -96q-96 0 -163.5 75.5t-67.5 194.5zM276 248q0 -43 27 -63.5t59 -20.5h1q72 0 210 110v578q-139 111 -211 111 q-33 0 -59.5 -20.5t-26.5 -63.5v-631z" />
<glyph unicode="e" horiz-adv-x="839" d="M82 256v614q0 121 73.5 194t192.5 73h144q119 0 192.5 -73t73.5 -194v-348q0 -41 -41 -41h-441v-235q0 -33 19.5 -52.5t52.5 -19.5h144q33 0 52 19.5t19 52.5v61q0 41 41 41h113q41 0 41 -41v-51q0 -121 -74 -193.5t-192 -72.5h-144q-119 0 -192.5 72.5t-73.5 193.5z M276 666h287v215q0 33 -19 52t-52 19h-144q-33 0 -52.5 -19.5t-19.5 -51.5v-215z" />
<glyph unicode="f" horiz-adv-x="565" d="M20 983v102q0 41 41 41h103v41q0 119 73.5 193t192.5 74h74q41 0 41 -41v-103q0 -41 -41 -41h-74q-33 0 -52.5 -19.5t-19.5 -51.5v-52h146q41 0 41 -41v-102q0 -41 -41 -41h-146v-901q0 -41 -41 -41h-112q-41 0 -41 41v901h-103q-41 0 -41 41z" />
<glyph unicode="g" horiz-adv-x="870" d="M82 250v627q0 119 67.5 194.5t163.5 75.5q98 0 260 -96v34q0 41 41 41h113q41 0 41 -41l-2 -1101q0 -166 -114.5 -239t-280.5 -73q-25 0 -57.5 2t-79 8.5t-77 22.5t-30.5 39v102q0 33 41 33q6 0 31 -4q90 -16 149 -16q223 0 223 145v72q-154 -96 -258 -96 q-96 0 -163.5 75.5t-67.5 194.5zM276 248q0 -43 27 -63.5t59 -20.5h1q66 0 208 108l2 580q-139 111 -211 111q-33 0 -59.5 -20.5t-26.5 -63.5v-631z" />
<glyph unicode="h" d="M102 53v1340q0 41 41 41h113q41 0 41 -41v-342q141 96 250 96q96 0 163.5 -76t67.5 -194v-836q0 -41 -41 -41h-112q-41 0 -41 41v838q0 43 -27 63.5t-59 20.5q-76 0 -201 -109v-801q0 -53 -41 -53h-113q-41 0 -41 53z" />
<glyph unicode="i" horiz-adv-x="401" d="M88 1303v90q0 29 17.5 45t44.5 16h102q27 0 44 -16.5t17 -44.5v-90q0 -29 -17 -45.5t-44 -16.5h-102q-27 0 -44.5 16.5t-17.5 45.5zM104 41v1044q0 41 41 41h113q41 0 41 -41v-1044q0 -41 -41 -41h-113q-41 0 -41 41z" />
<glyph unicode="j" horiz-adv-x="421" d="M-61 -164q0 41 41 41h73q33 0 52.5 19.5t19.5 52.5v1136q0 41 41 41h113q41 0 40 -41v-1126q0 -119 -73.5 -192.5t-192.5 -73.5h-73q-41 0 -41 41v102zM111 1300v91q0 27 16 44t45 17h102q29 0 45.5 -17.5t16.5 -43.5v-91q0 -27 -16.5 -44t-45.5 -17h-102q-29 0 -45 17 t-16 44z" />
<glyph unicode="k" horiz-adv-x="759" d="M102 41v1352q0 41 41 41h113q41 0 41 -41v-766l221 463q16 36 55 36h2h121q43 1 27 -36l-246 -515l258 -538q16 -37 -24 -37h-121q-43 0 -60 37l-233 487v-483q0 -41 -41 -41h-113q-41 0 -41 41z" />
<glyph unicode="l" horiz-adv-x="399" d="M102 41v1352q0 41 41 41h113q41 0 41 -41v-1352q0 -41 -41 -41h-113q-41 0 -41 41z" />
<glyph unicode="m" horiz-adv-x="1320" d="M102 41v1044q0 41 41 41h113q41 0 41 -41v-20q131 82 229 82q123 0 189 -111q162 111 272 111q96 0 164 -76t68 -194v-836q0 -41 -41 -41h-113q-41 0 -41 41v838q0 43 -26.5 63.5t-59.5 20.5q-66 0 -180 -93v-829q0 -41 -41 -41h-113q-41 0 -41 41v838q0 43 -26.5 63.5 t-59.5 20.5q-66 0 -180 -93v-829q0 -41 -41 -41h-113q-41 0 -41 41z" />
<glyph unicode="n" d="M102 41v1044q0 41 41 41h113q41 0 41 -41v-34q141 96 250 96q96 0 163.5 -76t67.5 -194v-836q0 -41 -41 -41h-112q-41 0 -41 41v838q0 43 -27 63.5t-59 20.5q-76 0 -201 -109v-813q0 -41 -41 -41h-113q-41 0 -41 41z" />
<glyph unicode="o" horiz-adv-x="860" d="M82 256v614q0 121 73.5 194t192.5 73h164q119 0 192.5 -73t73.5 -194v-614q0 -121 -73.5 -193.5t-192.5 -72.5h-164q-119 0 -192.5 72.5t-73.5 193.5zM276 246q0 -33 19.5 -52.5t52.5 -19.5h164q33 0 52.5 19.5t19.5 52.5v635q0 33 -19.5 52t-52.5 19h-164 q-33 0 -52.5 -19t-19.5 -52v-635z" />
<glyph unicode="p" horiz-adv-x="870" d="M102 -266v1351q0 41 41 41h113q41 0 41 -41v-34q162 96 260 96q96 0 163.5 -76t67.5 -194v-627q0 -119 -67.5 -194.5t-163.5 -75.5q-98 0 -260 96v-342q0 -41 -41 -41h-113q-41 0 -41 41zM297 274q136 -110 210 -110h1q33 0 59.5 20.5t26.5 63.5v631q0 43 -26.5 63.5 t-59.5 20.5q-74 0 -211 -111v-578z" />
<glyph unicode="q" horiz-adv-x="870" d="M82 250v627q0 119 67.5 194.5t163.5 75.5q98 0 260 -96v34q0 41 41 41h113q41 0 41 -41v-1351q0 -41 -41 -41h-113q-41 0 -41 41v342q-162 -96 -260 -96q-96 0 -163.5 75.5t-67.5 194.5zM276 248q0 -43 27 -63.5t59 -20.5h1q72 0 210 110v578q-139 111 -211 111 q-33 0 -59.5 -20.5t-26.5 -63.5v-631z" />
<glyph unicode="r" horiz-adv-x="567" d="M102 41v1044q0 41 41 41h113q41 0 41 -41v-34q141 94 215 94q35 0 35 -39l2 -135q0 -29 -31 -29q-92 0 -221 -108v-793q0 -41 -41 -41h-113q-41 0 -41 41z" />
<glyph unicode="s" horiz-adv-x="819" d="M72 256v92q0 41 41 41h112q41 0 41 -41v-72q0 -102 82 -102h123q82 0 82 102v31q0 43 -33 66l-340 248q-98 72 -98 194v55q0 119 72.5 193t193.5 74h123q119 0 192.5 -73t73.5 -194v-92q0 -41 -41 -41h-112q-41 0 -41 41v72q0 102 -82 102h-103q-82 0 -82 -102v-19 q0 -43 33 -65l340 -248q99 -71 99 -194v-68q0 -119 -73 -192.5t-194 -73.5h-143q-121 0 -193.5 72.5t-72.5 193.5z" />
<glyph unicode="t" horiz-adv-x="585" d="M20 983v102q0 41 41 41h103v164q0 41 41 41h112q41 0 41 -41v-164h146q41 0 41 -41v-102q0 -41 -41 -41h-146v-696q0 -33 19.5 -52.5t52.5 -19.5h74q41 0 41 -41v-102q0 -41 -41 -41h-74q-119 0 -192.5 72.5t-73.5 193.5v686h-103q-41 0 -41 41z" />
<glyph unicode="u" horiz-adv-x="901" d="M102 250v835q0 41 41 41h113q41 0 41 -41v-837q0 -43 26.5 -63.5t59.5 -20.5q78 0 221 127v794q0 41 41 41h113q41 0 41 -41v-1044q0 -41 -41 -41h-113q-41 0 -41 41v49q-149 -110 -268 -110h-2q-96 0 -164 75.5t-68 194.5z" />
<glyph unicode="v" horiz-adv-x="751" d="M23 1087q-10 39 30 39h119q43 0 49 -41l141 -645q10 -57 11 -121h4q0 64 10 121l143 645q6 41 50 41h118q41 0 31 -39l-252 -1048q-10 -39 -51 -39h-102q-41 0 -52 41z" />
<glyph unicode="w" horiz-adv-x="1179" d="M23 1085q-10 41 30 41h119q43 0 49 -41l125 -675q8 -47 8 -121h4q0 76 11 123l123 673q6 41 47 41h102q43 0 49 -41l123 -673q8 -49 8 -123h4q0 78 11 121l125 675q6 41 47 41h118q35 0 35 -27q0 -6 -2 -14l-233 -1044q-10 -41 -52 -41h-102q-39 0 -49 41l-121 641 q-10 57 -10 121h-4q0 -78 -10 -121l-123 -641q-6 -41 -49 -41h-103q-39 0 -49 41z" />
<glyph unicode="x" horiz-adv-x="768" d="M25 37l258 538l-250 515q-16 37 24 36h123q41 0 58 -36l133 -269q10 -20 10 -59h4q0 34 12 59l131 269q16 36 56 36h2h121q41 0 24 -36l-246 -515l258 -538q16 -37 -22 -37h-121q-43 0 -59 37l-144 295q-12 25 -12 57h-4q0 -37 -10 -57l-144 -295q-16 -37 -57 -37h-121 q-41 0 -24 37z" />
<glyph unicode="y" horiz-adv-x="772" d="M23 1087q-10 39 30 39h119q43 0 49 -39l150 -647q12 -53 12 -121h4q0 70 12 121l150 647q10 39 51 39h119q41 0 31 -39l-340 -1355q-10 -39 -52 -39h-104q-41 0 -31 39l70 268z" />
<glyph unicode="z" horiz-adv-x="696" d="M41 41v102q0 37 18 78l387 721h-354q-41 0 -41 41v102q0 41 41 41h533q41 0 41 -41v-102q0 -37 -19 -78l-387 -721h365q41 0 41 -41v-102q0 -41 -41 -41h-543q-41 0 -41 41z" />
<glyph unicode="{" horiz-adv-x="577" d="M20 553v123q0 41 41 41h25q37 0 59.5 22.5t22.5 59.5v440q0 133 81 215t214 82h53q41 0 41 -41v-102q0 -41 -41 -41h-63q-37 0 -58.5 -22.5t-21.5 -59.5v-410q0 -166 -119 -246q119 -82 119 -245v-410q0 -37 21.5 -59.5t58.5 -22.5h63q41 0 41 -41v-102q0 -41 -41 -41 h-53q-133 0 -214 82t-81 215v440q0 37 -23.5 59.5t-58.5 22.5h-25q-41 0 -41 41z" />
<glyph unicode="|" horiz-adv-x="368" d="M102 -276v1781q0 31 31 31h103q31 0 30 -31v-1781q0 -31 -30 -31h-103q-31 0 -31 31z" />
<glyph unicode="}" horiz-adv-x="577" d="M20 -164q0 41 41 41h64q37 0 58.5 22.5t21.5 59.5v410q0 164 119 245q-119 80 -119 246v410q0 37 -21.5 59.5t-58.5 22.5h-64q-41 0 -41 41v102q0 41 41 41h54q133 0 214 -82t81 -215v-440q0 -37 22.5 -59.5t59.5 -22.5h24q41 0 41 -41v-123q0 -41 -41 -41h-24 q-35 0 -58.5 -22.5t-23.5 -59.5v-440q0 -133 -81 -215t-214 -82h-54q-41 0 -41 41v102z" />
<glyph unicode="~" d="M102 672v123q0 31 27 47l43 26q57 35 123 35q53 0 94 -20l141 -64q27 -12 62 -12q43 0 82 22l78 50q6 4 14 4q12 0 12 -19v-123q0 -31 -26 -47l-43 -26q-57 -35 -123 -35q-53 0 -94 20l-142 64q-27 12 -61 12q-43 0 -82 -22l-78 -50q-6 -4 -14 -4q-13 1 -13 19z" />
<glyph unicode="&#xa1;" horiz-adv-x="440" d="M102 942v123q0 29 16.5 45t45.5 16h112q27 0 44.5 -16t17.5 -45v-123q0 -29 -17.5 -45t-44.5 -16h-112q-29 0 -45.5 16t-16.5 45zM113 -246l16 901q0 29 17.5 45.5t43.5 16.5h60q29 0 45 -16.5t16 -45.5l17 -901q0 -29 -16.5 -45t-45.5 -16h-92q-27 0 -44 16t-17 45z" />
<glyph unicode="&#xa2;" horiz-adv-x="808" d="M82 440v553q0 121 73.5 194t192.5 73h2v153q0 31 31 31h82q31 0 31 -31v-153q115 -4 184.5 -77t69.5 -190v-82q0 -41 -41 -41h-113q-41 0 -41 41v93q0 33 -19.5 52t-52.5 19h-133q-33 0 -52.5 -19.5t-19.5 -51.5v-574q0 -33 19.5 -52.5t52.5 -19.5h133q33 0 52.5 19.5 t19.5 52.5v92q0 41 41 41h113q41 0 41 -41v-82q0 -117 -70 -189.5t-184 -76.5v-154q0 -31 -31 -30h-82q-31 -1 -31 30v154h-2q-119 0 -192.5 72.5t-73.5 193.5z" />
<glyph unicode="&#xa3;" horiz-adv-x="962" d="M61 41v123q0 41 41 41h113v354h-113q-41 0 -41 41v82q0 41 41 41h113v424q0 133 82 215t215 82h92q133 0 215 -82t82 -215v-123q0 -41 -41 -41h-123q-41 0 -41 41v133q0 37 -22.5 59.5t-59.5 22.5h-112q-37 0 -59.5 -22.5t-22.5 -59.5v-434h215q41 0 41 -41v-82 q0 -41 -41 -41h-215v-354h432q41 0 41 -41v-123q0 -41 -41 -41h-750q-41 0 -41 41z" />
<glyph unicode="&#xa4;" horiz-adv-x="1105" d="M76 311q-31 27 0 58l102 104q-72 111 -72 244t72 244l-102 104q-31 31 0 57l71 72q12 14 27 14q16 0 31 -14l102 -104q113 74 246 73q135 0 244 -73l104 104q12 14 29 14q14 0 28 -14l72 -72q29 -29 0 -57l-104 -104q74 -109 74 -244t-74 -244l104 -104q31 -31 0 -58 l-72 -71q-14 -14 -28.5 -14.5t-28.5 14.5l-104 104q-109 -74 -244 -74q-133 0 -246 74l-102 -104q-18 -14 -30.5 -14.5t-27.5 14.5zM291 716.5q0 -108.5 76.5 -185t185.5 -76.5q106 0 184 77.5t78 184t-78 184.5t-184 78q-109 0 -185.5 -77t-76.5 -185.5z" />
<glyph unicode="&#xa5;" horiz-adv-x="837" d="M23 1395q-6 16 2 27.5t26 11.5h131q39 0 54 -39l163 -480q18 -51 19 -118h4q0 63 16 118l164 480q14 39 55 39h131q41 0 27 -39l-278 -797h139q41 0 41 -41v-80q0 -41 -41 -41h-154v-92h154q41 0 41 -41v-80q0 -41 -41 -41h-154v-141q0 -41 -41 -41h-123q-41 0 -41 41 v141h-153q-41 0 -41 41v80q0 41 41 41h153v92h-153q-41 0 -41 41v80q0 41 41 41h137z" />
<glyph unicode="&#xa6;" horiz-adv-x="368" d="M102 -276v778h164v-778q0 -31 -30 -31h-103q-31 0 -31 31zM102 727v778q0 31 31 31h103q30 0 30 -31v-778h-164z" />
<glyph unicode="&#xa7;" horiz-adv-x="819" d="M82 174v92q0 41 41 41h113q41 0 40 -41v-71q0 -47 28 -75t75 -28h61q47 0 75 27.5t28 75.5v428q0 37 -33 65l-135 123q-25 16 -4 41l88 100q8 12 24 13q9 -1 21 -9l135 -122q98 -90 98 -195v-465q0 -119 -72.5 -192.5t-193.5 -73.5h-123q-119 0 -192.5 72.5t-73.5 193.5z M82 713v465q0 119 72.5 192.5t193.5 73.5h123q119 0 192.5 -73t73.5 -193v-93q0 -41 -41 -41h-112q-41 0 -41 41v72q0 47 -28 75t-75 28h-61q-47 0 -75 -28t-28 -75v-428q0 -37 33 -65l144 -129q25 -16 4 -41l-88 -101q-8 -12 -25 -12q-8 0 -20 8l-144 129q-98 88 -98 195z " />
<glyph unicode="&#xa8;" horiz-adv-x="522" d="M41 1495v51q0 27 16.5 44.5t44.5 17.5h52q27 0 44 -17.5t17 -44.5v-51q0 -29 -17.5 -45t-43.5 -16h-52q-29 0 -45 16t-16 45zM307 1495v51q0 27 16.5 44.5t45.5 17.5h51q27 0 44 -17.5t17 -44.5v-51q0 -29 -17.5 -45t-43.5 -16h-51q-29 0 -45.5 16t-16.5 45z" />
<glyph unicode="&#xa9;" horiz-adv-x="1597" d="M92 492v450q0 221 135 356.5t357 135.5h430q221 0 356 -135.5t135 -356.5v-450q0 -221 -135 -356.5t-356 -135.5h-430q-221 0 -356.5 135.5t-135.5 356.5zM256 492q0 -147 90 -237.5t238 -90.5h430q147 0 237 90t90 238v450q0 147 -90 237.5t-237 90.5h-430 q-147 0 -237.5 -90.5t-90.5 -237.5v-450zM471 532v369q0 119 73.5 192.5t192.5 73.5h133q121 0 194 -73.5t73 -192.5v-31q0 -41 -41 -41h-113q-41 0 -41 41v41q0 33 -19.5 52.5t-52.5 19.5h-133q-33 0 -52 -19.5t-19 -52.5v-389q0 -33 19 -52t52 -19h133q33 0 52.5 19 t19.5 52v41q0 41 41 41h113q41 0 41 -41v-31q0 -119 -73 -192.5t-194 -73.5h-133q-119 0 -192.5 74t-73.5 192z" />
<glyph unicode="&#xaa;" horiz-adv-x="559" d="M53 862v115q0 80 49.5 128t135.5 48q47 0 129 -10v110q0 66 -54 66h-73q-53 0 -54 -66v-14q0 -27 -26 -27h-74q-27 0 -27 27v27q0 78 48.5 126t125.5 48h86q78 0 125.5 -48.5t47.5 -125.5v-539q0 -27 -27 -27h-72q-27 0 -26 27v23q-92 -63 -164 -64q-61 0 -105.5 50 t-44.5 126zM180 862q0 -29 17.5 -42t38.5 -13q51 0 131 70v153q-72 14 -111 14q-33 0 -54.5 -17t-21.5 -48v-117z" />
<glyph unicode="&#xab;" horiz-adv-x="942" d="M41 606v37q0 41 29 70l290 291q14 14 29 14q16 0 31 -14l57 -58q31 -30 0 -57l-264 -264l264 -265q31 -27 0 -57l-57 -57q-14 -14 -31 -15q-14 0 -29 15l-290 291q-29 29 -29 69zM430 606v37q0 45 29 70l291 293q16 12 30 12t29 -12l57 -60q33 -28 0 -57l-262 -264 l262 -265q33 -29 0 -57l-57 -59q-14 -12 -29 -13q-14 0 -30 13l-291 293q-29 25 -29 69z" />
<glyph unicode="&#xac;" d="M102 737v103q0 41 41 41h594q41 0 41 -41v-287q0 -41 -41 -41h-102q-41 0 -41 41v143h-451q-41 0 -41 41z" />
<glyph unicode="&#xad;" horiz-adv-x="573" d="M82 573v103q0 31 31 31h348q31 0 31 -31v-103q0 -31 -31 -30h-348q-31 -1 -31 30z" />
<glyph unicode="&#xae;" horiz-adv-x="1597" d="M92 492v450q0 221 135 356.5t357 135.5h430q221 0 356 -135.5t135 -356.5v-450q0 -221 -135 -356.5t-356 -135.5h-430q-221 0 -356.5 135.5t-135.5 356.5zM256 492q0 -147 90 -237.5t238 -90.5h430q147 0 237 90t90 238v450q0 147 -90 237.5t-237 90.5h-430 q-147 0 -237.5 -90.5t-90.5 -237.5v-450zM520 293v848q0 37 37 37h301q121 0 194.5 -73t73.5 -194v-73q0 -150 -106 -222l117 -325q10 -35 -29 -35h-115q-33 0 -47 35l-102 278h-139v-276q0 -37 -37 -37h-111q-37 0 -37 37zM705 754h163q33 0 53.5 20.5t20.5 52.5v93 q0 35 -20.5 54t-53.5 19h-163v-239z" />
<glyph unicode="&#xaf;" horiz-adv-x="491" d="M41 1495v72q0 31 31 30h348q31 0 31 -30v-72q0 -31 -31 -31h-348q-31 0 -31 31z" />
<glyph unicode="&#xb0;" horiz-adv-x="614" d="M61 1208.5q0 102.5 72 174t174.5 71.5t174 -71.5t71.5 -174t-71.5 -174t-174 -71.5t-174.5 71.5t-72 174zM209 1208q0 -41 28.5 -69.5t69.5 -28.5t70 28.5t29 69.5t-29 70t-70 29t-69.5 -29t-28.5 -70z" />
<glyph unicode="&#xb1;" d="M102 225v103q0 41 41 41h594q41 0 41 -41v-103q0 -41 -41 -41h-594q-41 0 -41 41zM102 758v102q0 41 41 41h205v205q0 41 41 41h103q41 0 40 -41v-205h205q41 0 41 -41v-102q0 -41 -41 -41h-205v-205q1 -41 -40 -41h-103q-41 0 -41 41v205h-205q-41 0 -41 41z" />
<glyph unicode="&#xb2;" horiz-adv-x="425" d="M33 1217v43q0 82 49 131t131 49h4q82 0 131 -49.5t49 -130.5v-109q0 -76 -59 -119l-164 -119q-14 -10 -14 -26v-47h215q23 0 22 -25v-74q0 -25 -22 -24h-314q-25 0 -24 24v150q0 74 57 117l166 118q14 10 14 29v117q0 45 -45 45h-28q-45 0 -45 -45v-55q0 -23 -25 -23h-74 q-25 0 -24 23z" />
<glyph unicode="&#xb3;" horiz-adv-x="438" d="M27 1231v29q0 82 49 131t131 49h24q82 0 131.5 -49.5t49.5 -130.5v-52q0 -80 -68 -125q72 -43 72 -125v-67q0 -80 -49.5 -130t-130.5 -50h-25q-82 0 -131 50t-49 130v31q0 25 24 24h74q25 0 25 -24v-43q0 -45 45 -45h49q45 0 45 45v98q0 45 -45 45h-51q-25 0 -25 25v73 q0 25 25 25h45q47 0 47 45v82q0 45 -45 45h-49q-45 0 -45 -45v-41q0 -25 -25 -25h-74q-25 0 -24 25z" />
<glyph unicode="&#xb4;" horiz-adv-x="401" d="M45 1450l82 156q16 27 47 26h170q27 0 8 -22l-162 -164q-18 -23 -51 -23h-78q-32 0 -16 27z" />
<glyph unicode="&#xb6;" horiz-adv-x="1105" d="M82 850v287q0 133 82 215t215 82h563q41 0 41 -41v-1659q0 -41 -41 -41h-123q-41 0 -41 41v1495h-123v-1495q0 -41 -41 -41h-122q-41 0 -41 41v819h-72q-133 0 -215 82t-82 215z" />
<glyph unicode="&#xb7;" horiz-adv-x="399" d="M82 655v123q0 29 16.5 45.5t44.5 16.5h113q27 0 44 -16.5t17 -45.5v-123q0 -29 -17 -45t-44 -16h-113q-29 0 -45 16t-16 45z" />
<glyph unicode="&#xb8;" horiz-adv-x="352" d="M41 -246q0 31 31 31h106q31 0 31 31v10q0 31 -31 31h-45q-29 0 -42 16t-7 43l18 94h113l-12 -61h6q45 0 73.5 -28t28.5 -75v-51q0 -45 -28.5 -73.5t-73.5 -28.5h-137q-31 0 -31 31v30z" />
<glyph unicode="&#xb9;" horiz-adv-x="339" d="M16 1274v76q0 23 23 32l123 43q18 9 47 9h29q25 0 24 -25v-668q0 -25 -24 -24h-76q-23 0 -23 24v551l-100 -35q-4 -2 -8 -2q-14 0 -15 19z" />
<glyph unicode="&#xba;" horiz-adv-x="559" d="M53 866v400q0 78 48.5 126t125.5 48h105q78 0 126 -48t48 -126v-400q0 -78 -48 -125t-126 -47h-105q-78 0 -126 47t-48 125zM180 860q0 -47 47 -47h105q47 0 47 47v414q0 45 -47 45h-105q-47 0 -47 -45v-414z" />
<glyph unicode="&#xbb;" horiz-adv-x="942" d="M74 303q-27 31 0 57l264 265l-264 264q-27 27 0 57l59 58q12 14 28.5 14t28.5 -14l291 -291q29 -25 29 -70v-37q0 -45 -29 -69l-291 -291q-12 -14 -28.5 -14.5t-28.5 14.5zM463 303q-33 29 0 57l264 265l-264 264q-33 29 0 57l59 60q12 12 28.5 12t29.5 -12l292 -293 q29 -29 29 -70v-37q0 -41 -29 -69l-292 -293q-12 -12 -28.5 -12.5t-29.5 12.5z" />
<glyph unicode="&#xbc;" horiz-adv-x="1554" d="M119 1274v76q0 23 22 32l123 43q18 9 47 9h29q25 0 25 -25v-668q0 -25 -25 -24h-76q-23 0 -22 24v551l-101 -35q-4 -2 -8 -2q-14 0 -14 19zM186 8l1059 1514q8 14 25 14q8 0 16 -6l84 -60q27 -18 8 -43l-1056 -1513q-8 -14 -25 -14q-10 0 -18 6l-84 59q-25 16 -9 43z M987 150v36q0 20 10 45l189 463q10 23 35 23h84q25 0 14 -23l-182 -446h112v129q0 25 25 24h76q23 0 22 -24v-129h47q25 0 25 -25v-73q0 -25 -25 -25h-47v-100q0 -25 -22 -25h-76q-25 0 -25 25v100h-237q-25 0 -25 25z" />
<glyph unicode="&#xbd;" horiz-adv-x="1503" d="M119 1274v76q0 23 22 32l123 43q18 9 47 9h29q25 0 25 -25v-668q0 -25 -25 -24h-76q-23 0 -22 24v551l-101 -35q-4 -2 -8 -2q-14 0 -14 19zM186 8l1059 1514q8 14 25 14q8 0 16 -6l84 -60q27 -18 8 -43l-1056 -1513q-8 -14 -25 -14q-10 0 -18 6l-84 59q-25 16 -9 43z M1008 500v43q0 82 49 131t131 49h4q82 0 131 -49t49 -131v-109q0 -76 -59 -119l-164 -118q-14 -10 -14 -27v-47h215q23 0 22 -25v-73q0 -25 -22 -25h-314q-25 0 -24 25v149q0 74 57 117l166 119q14 10 14 28v117q0 45 -45 45h-28q-45 0 -46 -45v-55q0 -23 -24 -23h-74 q-25 0 -24 23z" />
<glyph unicode="&#xbe;" horiz-adv-x="1652" d="M129 1231v29q0 82 49 131t131 49h25q82 0 131 -49.5t49 -130.5v-52q0 -80 -68 -125q72 -43 72 -125v-67q0 -80 -49 -130t-131 -50h-25q-82 0 -131 50t-49 130v31q0 25 25 24h73q25 0 25 -24v-43q0 -45 45 -45h49q45 0 45 45v98q0 45 -45 45h-51q-25 0 -25 25v73 q0 25 25 25h45q47 0 47 45v82q0 45 -45 45h-49q-45 0 -45 -45v-41q0 -25 -25 -25h-73q-25 0 -25 25zM285 8l1058 1514q8 14 25 14q8 0 16 -6l84 -60q27 -18 9 -43l-1057 -1513q-8 -14 -25 -14q-10 0 -18 6l-84 59q-24 16 -8 43zM1085 150v36q0 20 11 45l188 463q10 23 35 23 h84q25 0 14 -23l-182 -446h113v129q0 25 24 24h76q23 0 22 -24v-129h48q25 0 24 -25v-73q1 -25 -24 -25h-48v-100q0 -25 -22 -25h-76q-25 0 -24 25v100h-238q-25 0 -25 25z" />
<glyph unicode="&#xbf;" horiz-adv-x="796" d="M51 -20v225q0 133 96 223l109 102q33 33 33 70l6 76q0 41 43 41h102q39 0 43 -41l2 -70q6 -131 -90 -225l-110 -105q-29 -29 -29 -69v-238q0 -37 22.5 -59.5t59.5 -22.5h100q37 0 59.5 22.5t22.5 59.5v127q0 41 41 41h123q41 0 41 -41v-116q0 -133 -82 -215t-215 -82h-80 q-133 0 -215 82t-82 215zM270 942v123q0 29 16.5 45t45.5 16h112q27 0 44.5 -16t17.5 -45v-123q0 -29 -17.5 -45t-44.5 -16h-112q-29 0 -45.5 16t-16.5 45z" />
<glyph unicode="&#xc0;" horiz-adv-x="905" d="M23 39l337 1356q10 39 52 39h82q41 0 51 -39l338 -1356q10 -39 -31 -39h-129q-41 0 -51 39l-45 194h-351l-45 -194q-6 -39 -49 -39h-129q-41 0 -30 39zM219 1692q-18 23 8 22h170q31 1 47 -26l82 -156q16 -27 -16 -27h-78q-33 0 -51 23zM324 438h256l-113 494 q-12 53 -12 121h-4q0 -70 -13 -121z" />
<glyph unicode="&#xc1;" horiz-adv-x="905" d="M23 39l337 1356q10 39 52 39h82q41 0 51 -39l338 -1356q10 -39 -31 -39h-129q-41 0 -51 39l-45 194h-351l-45 -194q-6 -39 -49 -39h-129q-41 0 -30 39zM324 438h256l-113 494q-12 53 -12 121h-4q0 -70 -13 -121zM379 1532l82 156q16 27 47 26h170q27 0 8 -22l-162 -164 q-18 -23 -51 -23h-78q-32 0 -16 27z" />
<glyph unicode="&#xc2;" horiz-adv-x="905" d="M23 39l337 1356q10 39 52 39h82q41 0 51 -39l338 -1356q10 -39 -31 -39h-129q-41 0 -51 39l-45 194h-351l-45 -194q-6 -39 -49 -39h-129q-41 0 -30 39zM229 1540l125 160q20 25 52 24h98q29 1 49 -24l125 -160q18 -25 -12 -24h-107q-31 0 -49 24l-55 86l-64 -86 q-18 -25 -47 -24h-102q-31 0 -13 24zM324 438h256l-113 494q-12 53 -12 121h-4q0 -70 -13 -121z" />
<glyph unicode="&#xc3;" horiz-adv-x="905" d="M23 39l337 1356q10 39 52 39h82q41 0 51 -39l338 -1356q10 -39 -31 -39h-129q-41 0 -51 39l-45 194h-351l-45 -194q-6 -39 -49 -39h-129q-41 0 -30 39zM238 1542v78q0 41 46 64.5t91 23.5q39 0 67 -14l58 -31q20 -10 45 -10q35 0 98 43q6 6 12 6q12 0 13 -19v-77 q0 -41 -46.5 -64.5t-91.5 -23.5q-39 0 -67 14l-57 31q-20 10 -46 10q-35 0 -98 -43q-6 -6 -12 -6q-12 0 -12 18zM324 438h256l-113 494q-12 53 -12 121h-4q0 -70 -13 -121z" />
<glyph unicode="&#xc4;" horiz-adv-x="905" d="M23 39l337 1356q10 39 52 39h82q41 0 51 -39l338 -1356q10 -39 -31 -39h-129q-41 0 -51 39l-45 194h-351l-45 -194q-6 -39 -49 -39h-129q-41 0 -30 39zM231 1577v51q0 27 17.5 44.5t44.5 17.5h51q29 0 45.5 -17.5t16.5 -44.5v-51q0 -29 -16.5 -45t-45.5 -16h-51 q-27 0 -44.5 16t-17.5 45zM324 438h256l-113 494q-12 53 -12 121h-4q0 -70 -13 -121zM498 1577v51q0 27 17 44.5t44 17.5h51q29 0 45.5 -17.5t16.5 -44.5v-51q0 -29 -16.5 -45t-45.5 -16h-51q-27 0 -44 16t-17 45z" />
<glyph unicode="&#xc5;" horiz-adv-x="905" d="M23 39l337 1356q10 39 52 39h82q41 0 51 -39l338 -1356q10 -39 -31 -39h-129q-41 0 -51 39l-45 194h-351l-45 -194q-6 -39 -49 -39h-129q-41 0 -30 39zM289 1658.5q0 67.5 48 116t115.5 48.5t115.5 -48.5t48 -116t-48 -115.5t-115.5 -48t-115.5 48t-48 115.5zM324 438 h256l-113 494q-12 53 -12 121h-4q0 -70 -13 -121zM383 1659q0 -29 21.5 -49.5t48 -20.5t48 20.5t21.5 49.5t-21.5 49.5t-48 20.5t-48 -20.5t-21.5 -49.5z" />
<glyph unicode="&#xc6;" horiz-adv-x="1259" d="M23 39l501 1356q10 39 51 39h592q41 0 41 -41v-123q0 -41 -41 -41h-348v-471h256q41 0 41 -41v-123q0 -41 -41 -41h-256v-348h348q41 0 41 -41v-123q0 -41 -41 -41h-512q-41 0 -41 41v192h-303l-67 -194q-14 -39 -51 -39h-140q-18 0 -27.5 11.5t-2.5 27.5zM383 438h231 v598q0 51 13 121l-4 2q-12 -72 -29 -119z" />
<glyph unicode="&#xc7;" horiz-adv-x="901" d="M92 287v860q0 133 82 215t215 82h133q133 0 215 -82t82 -215v-123q0 -41 -41 -41h-123q-41 0 -41 41v133q0 37 -22.5 59.5t-59.5 22.5h-153q-37 0 -59.5 -22.5t-22.5 -59.5v-881q0 -37 22.5 -59t59.5 -22h153q37 0 59.5 22.5t22.5 58.5v134q0 41 41 41h123q41 0 41 -41 v-123q0 -133 -82 -215t-215 -82h-37l-8 -41h6q45 0 74 -28t29 -75v-51q0 -45 -29 -73.5t-74 -28.5h-137q-31 0 -31 31v30q0 31 31 31h107q31 0 30 31v10q0 31 -30 31h-45q-29 0 -42.5 16t-7.5 43l15 74q-127 6 -204 87t-77 210z" />
<glyph unicode="&#xc8;" horiz-adv-x="757" d="M113 41v1352q0 41 41 41h512q41 0 41 -41v-123q0 -41 -41 -41h-349v-471h256q41 0 41 -41v-123q0 -41 -41 -41h-256v-348h349q41 0 41 -41v-123q0 -41 -41 -41h-512q-41 0 -41 41zM176 1692q-18 23 8 22h170q31 1 47 -26l82 -156q16 -27 -16 -27h-78q-33 0 -51 23z" />
<glyph unicode="&#xc9;" horiz-adv-x="757" d="M113 41v1352q0 41 41 41h512q41 0 41 -41v-123q0 -41 -41 -41h-349v-471h256q41 0 41 -41v-123q0 -41 -41 -41h-256v-348h349q41 0 41 -41v-123q0 -41 -41 -41h-512q-41 0 -41 41zM336 1532l82 156q16 27 47 26h170q27 0 8 -22l-162 -164q-18 -23 -51 -23h-78 q-32 0 -16 27z" />
<glyph unicode="&#xca;" horiz-adv-x="757" d="M113 41v1352q0 41 41 41h512q41 0 41 -41v-123q0 -41 -41 -41h-349v-471h256q41 0 41 -41v-123q0 -41 -41 -41h-256v-348h349q41 0 41 -41v-123q0 -41 -41 -41h-512q-41 0 -41 41zM186 1540l125 160q20 25 51 24h99q29 1 49 -24l125 -160q18 -25 -12 -24h-107 q-31 0 -49 24l-55 86l-64 -86q-18 -25 -47 -24h-102q-31 0 -13 24z" />
<glyph unicode="&#xcb;" horiz-adv-x="757" d="M113 41v1352q0 41 41 41h512q41 0 41 -41v-123q0 -41 -41 -41h-349v-471h256q41 0 41 -41v-123q0 -41 -41 -41h-256v-348h349q41 0 41 -41v-123q0 -41 -41 -41h-512q-41 0 -41 41zM188 1577v51q0 27 16.5 44.5t45.5 17.5h51q27 0 44 -17.5t17 -44.5v-51q0 -29 -17 -45 t-44 -16h-51q-29 0 -45.5 16t-16.5 45zM455 1577v51q0 27 16 44.5t45 17.5h51q27 0 44.5 -17.5t17.5 -44.5v-51q0 -29 -17.5 -45t-44.5 -16h-51q-29 0 -45 16t-16 45z" />
<glyph unicode="&#xcc;" horiz-adv-x="614" d="M61 41v113q0 41 41 41h103v1044h-103q-41 0 -41 41v113q0 41 41 41h410q41 0 41 -41v-113q0 -41 -41 -41h-102v-1044h102q41 0 41 -41v-113q0 -41 -41 -41h-410q-41 0 -41 41zM74 1692q-18 23 8 22h170q31 1 47 -26l82 -156q16 -27 -16 -27h-78q-33 0 -51 23z" />
<glyph unicode="&#xcd;" horiz-adv-x="614" d="M61 41v113q0 41 41 41h103v1044h-103q-41 0 -41 41v113q0 41 41 41h410q41 0 41 -41v-113q0 -41 -41 -41h-102v-1044h102q41 0 41 -41v-113q0 -41 -41 -41h-410q-41 0 -41 41zM233 1532l82 156q16 27 47 26h170q27 0 9 -22l-162 -164q-18 -23 -51 -23h-78q-33 0 -17 27z " />
<glyph unicode="&#xce;" horiz-adv-x="614" d="M61 41v113q0 41 41 41h103v1044h-103q-41 0 -41 41v113q0 41 41 41h410q41 0 41 -41v-113q0 -41 -41 -41h-102v-1044h102q41 0 41 -41v-113q0 -41 -41 -41h-410q-41 0 -41 41zM84 1540l125 160q20 25 51 24h98q30 1 50 -24l124 -160q18 -25 -12 -24h-106q-31 0 -49 24 l-56 86l-63 -86q-18 -25 -47 -24h-103q-31 0 -12 24z" />
<glyph unicode="&#xcf;" horiz-adv-x="614" d="M61 41v113q0 41 41 41h103v1044h-103q-41 0 -41 41v113q0 41 41 41h410q41 0 41 -41v-113q0 -41 -41 -41h-102v-1044h102q41 0 41 -41v-113q0 -41 -41 -41h-410q-41 0 -41 41zM86 1577v51q0 27 16.5 44.5t44.5 17.5h52q27 0 44 -17.5t17 -44.5v-51q0 -29 -17.5 -45 t-43.5 -16h-52q-29 0 -45 16t-16 45zM352 1577v51q0 27 16.5 44.5t45.5 17.5h51q27 0 44 -17.5t17 -44.5v-51q0 -29 -17 -45t-44 -16h-51q-29 0 -45.5 16t-16.5 45z" />
<glyph unicode="&#xd0;" horiz-adv-x="921" d="M10 676v82q0 41 41 41h62v594q0 41 41 41h378q133 0 215 -82t82 -215v-840q0 -133 -81.5 -215t-215.5 -82h-378q-41 0 -41 41v594h-62q-41 0 -41 41zM317 205h226q37 0 59.5 22.5t22.5 59.5v860q0 37 -22.5 59.5t-59.5 22.5h-226v-430h146q41 0 41 -41v-82q0 -41 -41 -41 h-146v-430z" />
<glyph unicode="&#xd1;" horiz-adv-x="952" d="M113 41v1352q0 41 41 41h82q41 0 57 -37l319 -772q16 -49 33 -119l4 2q-14 61 -14 121v764q0 41 41 41h123q41 0 41 -41v-1352q0 -41 -41 -41h-82q-41 0 -58 37l-317 764q-18 45 -35 119l-4 -2q14 -62 14 -121v-756q0 -41 -41 -41h-122q-41 0 -41 41zM262 1542v78 q0 41 46 64.5t91 23.5q39 0 68 -14l57 -31q20 -10 45 -10q35 0 99 43q6 6 12 6q12 0 12 -19v-77q0 -41 -46 -64.5t-91 -23.5q-39 0 -68 14l-57 31q-20 10 -45 10q-35 0 -98 -43q-6 -6 -13 -6q-12 0 -12 18z" />
<glyph unicode="&#xd2;" horiz-adv-x="942" d="M92 287v860q0 133 82 215t215 82h164q133 0 215 -82t82 -215v-860q0 -133 -82 -215t-215 -82h-164q-133 0 -215 82t-82 215zM238 1692q-18 23 8 22h170q31 1 47 -26l82 -156q16 -27 -17 -27h-77q-33 0 -52 23zM297 276q0 -37 22.5 -59t59.5 -22h184q37 0 59.5 22.5 t22.5 58.5v881q0 37 -22.5 59.5t-59.5 22.5h-184q-37 0 -59.5 -22.5t-22.5 -59.5v-881z" />
<glyph unicode="&#xd3;" horiz-adv-x="942" d="M92 287v860q0 133 82 215t215 82h164q133 0 215 -82t82 -215v-860q0 -133 -82 -215t-215 -82h-164q-133 0 -215 82t-82 215zM297 276q0 -37 22.5 -59t59.5 -22h184q37 0 59.5 22.5t22.5 58.5v881q0 37 -22.5 59.5t-59.5 22.5h-184q-37 0 -59.5 -22.5t-22.5 -59.5v-881z M397 1532l82 156q16 27 47 26h170q27 0 9 -22l-162 -164q-18 -23 -51 -23h-78q-33 0 -17 27z" />
<glyph unicode="&#xd4;" horiz-adv-x="942" d="M92 287v860q0 133 82 215t215 82h164q133 0 215 -82t82 -215v-860q0 -133 -82 -215t-215 -82h-164q-133 0 -215 82t-82 215zM248 1540l125 160q20 25 51 24h98q29 1 49 -24l125 -160q18 -25 -12 -24h-106q-31 0 -50 24l-55 86l-63 -86q-18 -25 -48 -24h-102q-31 0 -12 24 zM297 276q0 -37 22.5 -59t59.5 -22h184q37 0 59.5 22.5t22.5 58.5v881q0 37 -22.5 59.5t-59.5 22.5h-184q-37 0 -59.5 -22.5t-22.5 -59.5v-881z" />
<glyph unicode="&#xd5;" horiz-adv-x="942" d="M92 287v860q0 133 82 215t215 82h164q133 0 215 -82t82 -215v-860q0 -133 -82 -215t-215 -82h-164q-133 0 -215 82t-82 215zM256 1542v78q0 41 46 64.5t91 23.5q39 0 68 -14l57 -31q20 -10 45 -10q35 0 99 43q6 6 12 6q12 0 12 -19v-77q0 -41 -46 -64.5t-91 -23.5 q-39 0 -68 14l-57 31q-20 10 -45 10q-35 0 -98 -43q-6 -6 -13 -6q-12 0 -12 18zM297 276q0 -37 22.5 -59t59.5 -22h184q37 0 59.5 22.5t22.5 58.5v881q0 37 -22.5 59.5t-59.5 22.5h-184q-37 0 -59.5 -22.5t-22.5 -59.5v-881z" />
<glyph unicode="&#xd6;" horiz-adv-x="942" d="M92 287v860q0 133 82 215t215 82h164q133 0 215 -82t82 -215v-860q0 -133 -82 -215t-215 -82h-164q-133 0 -215 82t-82 215zM250 1577v51q0 27 16.5 44.5t44.5 17.5h51q27 0 44.5 -17.5t17.5 -44.5v-51q0 -29 -17.5 -45t-44.5 -16h-51q-29 0 -45 16t-16 45zM297 276 q0 -37 22.5 -59t59.5 -22h184q37 0 59.5 22.5t22.5 58.5v881q0 37 -22.5 59.5t-59.5 22.5h-184q-37 0 -59.5 -22.5t-22.5 -59.5v-881zM516 1577v51q0 27 16.5 44.5t45.5 17.5h51q27 0 44 -17.5t17 -44.5v-51q0 -29 -17.5 -45t-43.5 -16h-51q-29 0 -45.5 16t-16.5 45z" />
<glyph unicode="&#xd7;" d="M127 475q-31 27 0 57l184 185l-184 184q-33 29 0 57l72 72q12 14 28.5 14t28.5 -14l184 -184l185 184q12 14 28.5 14t28.5 -14l72 -72q31 -27 0 -57l-185 -184l185 -185q33 -29 0 -57l-72 -72q-14 -14 -29 -14q-10 0 -28 14l-185 185l-184 -185q-14 -14 -28.5 -14 t-28.5 14z" />
<glyph unicode="&#xd8;" horiz-adv-x="942" d="M92 287v860q0 133 82 215t215 82h164q49 0 96 -12l27 84q6 20 26 20q2 0 4.5 -1t4.5 -1l45 -14q26 -10 16 -39l-31 -95q109 -86 109 -239v-860q0 -133 -82 -215t-215 -82h-164q-51 0 -94 12l-29 -86q-6 -20 -26 -20q-2 0 -9 2l-45 14q-29 10 -18 39l33 98 q-109 80 -109 238zM297 348l289 889q-8 2 -23 2h-184q-37 0 -59.5 -22.5t-22.5 -59.5v-809zM356 197q8 -2 23 -2h184q37 0 59.5 22.5t22.5 58.5v811z" />
<glyph unicode="&#xd9;" horiz-adv-x="921" d="M92 287v1106q0 41 41 41h123q41 0 41 -41v-1117q0 -37 22.5 -59t59.5 -22h164q37 0 59.5 22.5t22.5 58.5v1117q0 41 41 41h122q41 0 41 -41v-1106q0 -133 -81.5 -215t-215.5 -82h-143q-133 0 -215 82t-82 215zM227 1692q-18 23 9 22h170q31 1 47 -26l82 -156 q16 -27 -17 -27h-78q-33 0 -51 23z" />
<glyph unicode="&#xda;" horiz-adv-x="921" d="M92 287v1106q0 41 41 41h123q41 0 41 -41v-1117q0 -37 22.5 -59t59.5 -22h164q37 0 59.5 22.5t22.5 58.5v1117q0 41 41 41h122q41 0 41 -41v-1106q0 -133 -81.5 -215t-215.5 -82h-143q-133 0 -215 82t-82 215zM387 1532l82 156q16 27 47 26h170q27 0 8 -22l-162 -164 q-18 -23 -51 -23h-78q-32 0 -16 27z" />
<glyph unicode="&#xdb;" horiz-adv-x="921" d="M92 287v1106q0 41 41 41h123q41 0 41 -41v-1117q0 -37 22.5 -59t59.5 -22h164q37 0 59.5 22.5t22.5 58.5v1117q0 41 41 41h122q41 0 41 -41v-1106q0 -133 -81.5 -215t-215.5 -82h-143q-133 0 -215 82t-82 215zM238 1540l124 160q20 25 52 24h98q29 1 49 -24l125 -160 q18 -25 -12 -24h-107q-31 0 -49 24l-55 86l-64 -86q-18 -25 -47 -24h-102q-31 0 -12 24z" />
<glyph unicode="&#xdc;" horiz-adv-x="921" d="M92 287v1106q0 41 41 41h123q41 0 41 -41v-1117q0 -37 22.5 -59t59.5 -22h164q37 0 59.5 22.5t22.5 58.5v1117q0 41 41 41h122q41 0 41 -41v-1106q0 -133 -81.5 -215t-215.5 -82h-143q-133 0 -215 82t-82 215zM240 1577v51q0 27 17 44.5t44 17.5h51q29 0 45.5 -17.5 t16.5 -44.5v-51q0 -29 -16.5 -45t-45.5 -16h-51q-27 0 -44 16t-17 45zM506 1577v51q0 27 17.5 44.5t43.5 17.5h51q29 0 45.5 -17.5t16.5 -44.5v-51q0 -29 -16.5 -45t-45.5 -16h-51q-27 0 -44 16t-17 45z" />
<glyph unicode="&#xdd;" horiz-adv-x="837" d="M23 1395q-6 16 2 27.5t26 11.5h131q39 0 54 -39l163 -480q18 -51 19 -118h4q0 63 16 118l164 480q14 39 55 39h131q41 0 27 -39l-293 -842v-512q0 -41 -41 -41h-123q-41 0 -41 41v512zM346 1532l82 156q16 27 47 26h170q27 0 8 -22l-161 -164q-18 -23 -52 -23h-78 q-32 0 -16 27z" />
<glyph unicode="&#xde;" horiz-adv-x="849" d="M113 41v1352q0 41 41 41h122q41 0 41 -41v-215h195q133 0 215 -82t82 -215v-287q0 -133 -82 -215t-215 -82h-195v-256q0 -41 -41 -41h-122q-41 0 -41 41zM317 502h205q37 0 59.5 22.5t22.5 59.5v307q0 37 -22.5 59.5t-59.5 22.5h-205v-471z" />
<glyph unicode="&#xdf;" horiz-adv-x="872" d="M102 41v1137q0 121 74 193.5t193 72.5h125q121 0 193.5 -73t72.5 -193v-134q0 -143 -101 -215q131 -70 132 -235v-328q0 -119 -74 -192.5t-193 -73.5h-84q-41 0 -41 41v102q0 41 41 41h74q82 0 82 103v338q0 102 -82 102h-74q-41 0 -41 41v102q0 41 41 41h33q92 0 92 103 v143q0 102 -82 103h-114q-33 0 -52.5 -19.5t-19.5 -52.5v-1147q0 -41 -41 -41h-113q-41 0 -41 41z" />
<glyph unicode="&#xe0;" horiz-adv-x="860" d="M82 250v176q0 123 75.5 196.5t207.5 73.5q68 0 198 -16v170q0 102 -82 102h-112q-82 0 -82 -102v-21q0 -41 -41 -41h-113q-41 0 -41 41v41q0 121 73 194t193 73h134q119 0 192.5 -73t73.5 -194v-829q0 -41 -41 -41h-113q-41 0 -41 41v35q-141 -96 -250 -96 q-96 0 -163.5 75.5t-67.5 194.5zM201 1384q-18 23 8 23h170q31 0 47 -27l82 -155q16 -27 -16 -27h-78q-33 0 -52 23zM276 248q0 -43 27 -63.5t59 -20.5q76 -1 201 108v236q-129 23 -170 22q-51 0 -84 -27.5t-33 -74.5v-180z" />
<glyph unicode="&#xe1;" horiz-adv-x="860" d="M82 250v176q0 123 75.5 196.5t207.5 73.5q68 0 198 -16v170q0 102 -82 102h-112q-82 0 -82 -102v-21q0 -41 -41 -41h-113q-41 0 -41 41v41q0 121 73 194t193 73h134q119 0 192.5 -73t73.5 -194v-829q0 -41 -41 -41h-113q-41 0 -41 41v35q-141 -96 -250 -96 q-96 0 -163.5 75.5t-67.5 194.5zM276 248q0 -43 27 -63.5t59 -20.5q76 -1 201 108v236q-129 23 -170 22q-51 0 -84 -27.5t-33 -74.5v-180zM360 1225l82 155q16 27 47 27h170q27 0 9 -23l-162 -163q-18 -23 -51 -23h-78q-33 0 -17 27z" />
<glyph unicode="&#xe2;" horiz-adv-x="860" d="M82 250v176q0 123 75.5 196.5t207.5 73.5q68 0 198 -16v170q0 102 -82 102h-112q-82 0 -82 -102v-21q0 -41 -41 -41h-113q-41 0 -41 41v41q0 121 73 194t193 73h134q119 0 192.5 -73t73.5 -194v-829q0 -41 -41 -41h-113q-41 0 -41 41v35q-141 -96 -250 -96 q-96 0 -163.5 75.5t-67.5 194.5zM211 1233l125 160q20 25 51 24h98q30 1 50 -24l124 -160q18 -25 -12 -25h-106q-31 0 -49 25l-56 86l-63 -86q-18 -25 -47 -25h-103q-31 0 -12 25zM276 248q0 -43 27 -63.5t59 -20.5q76 -1 201 108v236q-129 23 -170 22q-51 0 -84 -27.5 t-33 -74.5v-180z" />
<glyph unicode="&#xe3;" horiz-adv-x="860" d="M82 250v176q0 123 75.5 196.5t207.5 73.5q68 0 198 -16v170q0 102 -82 102h-112q-82 0 -82 -102v-21q0 -41 -41 -41h-113q-41 0 -41 41v41q0 121 73 194t193 73h134q119 0 192.5 -73t73.5 -194v-829q0 -41 -41 -41h-113q-41 0 -41 41v35q-141 -96 -250 -96 q-96 0 -163.5 75.5t-67.5 194.5zM219 1235v78q0 41 46 64.5t91 23.5q39 0 68 -15l57 -30q20 -10 45 -10q35 0 99 43q6 6 12 6q12 0 12 -19v-78q0 -41 -46 -64.5t-91 -23.5q-39 0 -68 15l-57 30q-20 10 -45 11q-35 0 -98 -43q-6 -6 -13 -6q-12 0 -12 18zM276 248 q0 -43 27 -63.5t59 -20.5q76 -1 201 108v236q-129 23 -170 22q-51 0 -84 -27.5t-33 -74.5v-180z" />
<glyph unicode="&#xe4;" horiz-adv-x="860" d="M82 250v176q0 123 75.5 196.5t207.5 73.5q68 0 198 -16v170q0 102 -82 102h-112q-82 0 -82 -102v-21q0 -41 -41 -41h-113q-41 0 -41 41v41q0 121 73 194t193 73h134q119 0 192.5 -73t73.5 -194v-829q0 -41 -41 -41h-113q-41 0 -41 41v35q-141 -96 -250 -96 q-96 0 -163.5 75.5t-67.5 194.5zM213 1270v51q0 27 16.5 44t44.5 17h52q27 0 44 -17t17 -44v-51q0 -29 -17.5 -45.5t-43.5 -16.5h-52q-29 0 -45 16.5t-16 45.5zM276 248q0 -43 27 -63.5t59 -20.5q76 -1 201 108v236q-129 23 -170 22q-51 0 -84 -27.5t-33 -74.5v-180z M479 1270v51q0 27 16.5 44t45.5 17h51q27 0 44 -17t17 -44v-51q0 -29 -17.5 -45.5t-43.5 -16.5h-51q-29 0 -45.5 16.5t-16.5 45.5z" />
<glyph unicode="&#xe5;" horiz-adv-x="860" d="M82 250v176q0 123 75.5 196.5t207.5 73.5q68 0 198 -16v170q0 102 -82 102h-112q-82 0 -82 -102v-21q0 -41 -41 -41h-113q-41 0 -41 41v41q0 121 73 194t193 73h134q119 0 192.5 -73t73.5 -194v-829q0 -41 -41 -41h-113q-41 0 -41 41v35q-141 -96 -250 -96 q-96 0 -163.5 75.5t-67.5 194.5zM270 1351.5q0 67.5 48.5 116t116 48.5t115.5 -48.5t48 -116t-48 -115.5t-115.5 -48t-116 48t-48.5 115.5zM276 248q0 -43 27 -63.5t59 -20.5q76 -1 201 108v236q-129 23 -170 22q-51 0 -84 -27.5t-33 -74.5v-180zM365 1351.5 q0 -28.5 20.5 -49t49 -20.5t49 20.5t20.5 49t-20.5 49t-49 20.5t-49 -20.5t-20.5 -49z" />
<glyph unicode="&#xe6;" horiz-adv-x="1320" d="M82 250v176q0 123 75.5 196.5t207.5 73.5q68 0 198 -16v190v19q-14 63 -80 63h-112q-84 0 -84 -102v-21q0 -41 -41 -41h-113q-41 0 -41 41v41q0 119 73 193t191 74h133q100 0 170 -54q66 53 170 54h144q121 0 193.5 -73t72.5 -194v-348q0 -41 -41 -41h-440v-235 q0 -33 19.5 -52.5t51.5 -19.5h144q33 0 52 19.5t19 52.5v61q0 41 41 41h113q41 0 41 -41v-51q0 -121 -72.5 -193.5t-193.5 -72.5h-144q-150 0 -221 108q-16 -12 -51 -35.5t-107.5 -53t-130.5 -29.5q-98 0 -167.5 75.5t-69.5 194.5zM276 248q0 -43 27 -63.5t59 -20.5 q76 -1 201 108v236q-129 23 -170 22q-51 0 -84 -27.5t-33 -74.5v-180zM758 666h286v215q0 33 -19 52t-52 19h-144q-33 0 -52 -19.5t-19 -51.5v-215z" />
<glyph unicode="&#xe7;" horiz-adv-x="808" d="M82 256v614q0 121 73.5 194t192.5 73h133q121 0 194 -73t73 -194v-92q0 -41 -41 -41h-113q-41 0 -41 41v103q0 33 -19.5 52t-52.5 19h-133q-33 0 -52.5 -19.5t-19.5 -51.5v-635q0 -33 19.5 -52.5t52.5 -19.5h133q33 0 52.5 19.5t19.5 52.5v102q0 41 41 41h113 q41 0 41 -41v-92q0 -121 -73 -193.5t-194 -72.5h-41l-8 -41h6q45 0 74 -28t29 -75v-51q0 -45 -29 -73.5t-74 -28.5h-137q-31 0 -31 31v30q0 31 31 31h107q31 0 30 31v10q0 31 -30 31h-46q-27 0 -41 16t-10 43l17 74q-113 8 -179.5 79.5t-66.5 186.5z" />
<glyph unicode="&#xe8;" horiz-adv-x="839" d="M82 256v614q0 121 73.5 194t192.5 73h144q119 0 192.5 -73t73.5 -194v-348q0 -41 -41 -41h-441v-235q0 -33 19.5 -52.5t52.5 -19.5h144q33 0 52 19.5t19 52.5v61q0 41 41 41h113q41 0 41 -41v-51q0 -121 -74 -193.5t-192 -72.5h-144q-119 0 -192.5 72.5t-73.5 193.5z M186 1384q-18 23 9 23h170q31 0 47 -27l82 -155q16 -27 -17 -27h-78q-33 0 -51 23zM276 666h287v215q0 33 -19 52t-52 19h-144q-33 0 -52.5 -19.5t-19.5 -51.5v-215z" />
<glyph unicode="&#xe9;" horiz-adv-x="839" d="M82 256v614q0 121 73.5 194t192.5 73h144q119 0 192.5 -73t73.5 -194v-348q0 -41 -41 -41h-441v-235q0 -33 19.5 -52.5t52.5 -19.5h144q33 0 52 19.5t19 52.5v61q0 41 41 41h113q41 0 41 -41v-51q0 -121 -74 -193.5t-192 -72.5h-144q-119 0 -192.5 72.5t-73.5 193.5z M276 666h287v215q0 33 -19 52t-52 19h-144q-33 0 -52.5 -19.5t-19.5 -51.5v-215zM346 1225l82 155q16 27 47 27h170q27 0 8 -23l-161 -163q-18 -23 -52 -23h-78q-32 0 -16 27z" />
<glyph unicode="&#xea;" horiz-adv-x="839" d="M82 256v614q0 121 73.5 194t192.5 73h144q119 0 192.5 -73t73.5 -194v-348q0 -41 -41 -41h-441v-235q0 -33 19.5 -52.5t52.5 -19.5h144q33 0 52 19.5t19 52.5v61q0 41 41 41h113q41 0 41 -41v-51q0 -121 -74 -193.5t-192 -72.5h-144q-119 0 -192.5 72.5t-73.5 193.5z M197 1233l125 160q20 25 51 24h98q29 1 49 -24l125 -160q18 -25 -12 -25h-107q-31 0 -49 25l-55 86l-64 -86q-18 -25 -47 -25h-102q-31 0 -12 25zM276 666h287v215q0 33 -19 52t-52 19h-144q-33 0 -52.5 -19.5t-19.5 -51.5v-215z" />
<glyph unicode="&#xeb;" horiz-adv-x="839" d="M82 256v614q0 121 73.5 194t192.5 73h144q119 0 192.5 -73t73.5 -194v-348q0 -41 -41 -41h-441v-235q0 -33 19.5 -52.5t52.5 -19.5h144q33 0 52 19.5t19 52.5v61q0 41 41 41h113q41 0 41 -41v-51q0 -121 -74 -193.5t-192 -72.5h-144q-119 0 -192.5 72.5t-73.5 193.5z M199 1270v51q0 27 17 44t44 17h51q29 0 45.5 -17t16.5 -44v-51q0 -29 -16.5 -45.5t-45.5 -16.5h-51q-27 0 -44 16.5t-17 45.5zM276 666h287v215q0 33 -19 52t-52 19h-144q-33 0 -52.5 -19.5t-19.5 -51.5v-215zM465 1270v51q0 27 17.5 44t43.5 17h52q29 0 45 -17t16 -44v-51 q0 -29 -16.5 -45.5t-44.5 -16.5h-52q-27 0 -44 16.5t-17 45.5z" />
<glyph unicode="&#xec;" horiz-adv-x="399" d="M-33 1384q-18 23 8 23h170q32 0 48 -27l81 -155q16 -27 -16 -27h-78q-33 0 -51 23zM102 41v1044q0 41 41 41h113q41 0 41 -41v-1044q0 -41 -41 -41h-113q-41 0 -41 41z" />
<glyph unicode="&#xed;" horiz-adv-x="399" d="M102 41v1044q0 41 41 41h113q41 0 41 -41v-1044q0 -41 -41 -41h-113q-41 0 -41 41zM127 1225l82 155q16 27 47 27h170q27 0 8 -23l-162 -163q-18 -23 -51 -23h-78q-32 0 -16 27z" />
<glyph unicode="&#xee;" horiz-adv-x="399" d="M-23 1233l125 160q20 25 52 24h98q29 1 49 -24l125 -160q18 -25 -12 -25h-107q-31 0 -49 25l-55 86l-64 -86q-18 -25 -47 -25h-102q-31 0 -13 25zM102 41v1044q0 41 41 41h113q41 0 41 -41v-1044q0 -41 -41 -41h-113q-41 0 -41 41z" />
<glyph unicode="&#xef;" horiz-adv-x="399" d="M-20 1270v51q0 27 16 44t45 17h51q27 0 44.5 -17t17.5 -44v-51q0 -29 -17.5 -45.5t-44.5 -16.5h-51q-29 0 -45 16.5t-16 45.5zM102 41v1044q0 41 41 41h113q41 0 41 -41v-1044q0 -41 -41 -41h-113q-41 0 -41 41zM246 1270v51q0 27 16.5 44t44.5 17h51q27 0 44.5 -17 t17.5 -44v-51q0 -29 -17.5 -45.5t-44.5 -16.5h-51q-29 0 -45 16.5t-16 45.5z" />
<glyph unicode="&#xf0;" horiz-adv-x="870" d="M92 256v606q0 115 67.5 189.5t164.5 74.5q110 0 270 -86v60q0 57 -22.5 88t-77.5 49l-13 -49q-6 -31 -37 -31q-2 0 -6 1t-6 1l-61 19q-39 10 -29 49l10 39l-110 18q-72 12 -72 49v84q0 37 49 37q18 0 31 -2l147 -22l15 49q6 29 49 28l59 -18q39 -10 29 -49l-10 -35 q137 -33 193 -106.5t56 -219.5v-823q0 -121 -72.5 -193.5t-193.5 -72.5h-164q-121 0 -193.5 72.5t-72.5 193.5zM287 276q0 -102 82 -102h143q82 0 82 102v566q-154 100 -221 100q-33 0 -59.5 -20.5t-26.5 -61.5v-584z" />
<glyph unicode="&#xf1;" d="M102 41v1044q0 41 41 41h113q41 0 41 -41v-34q141 96 250 96q96 0 163.5 -76t67.5 -194v-836q0 -41 -41 -41h-112q-41 0 -41 41v838q0 43 -27 63.5t-59 20.5q-76 0 -201 -109v-813q0 -41 -41 -41h-113q-41 0 -41 41zM225 1235v78q0 41 46 64.5t91 23.5q39 0 68 -15 l57 -30q20 -10 45 -10q35 0 99 43q6 6 12 6q12 0 12 -19v-78q0 -41 -46 -64.5t-91 -23.5q-39 0 -67 15l-58 30q-20 10 -45 11q-35 0 -98 -43q-6 -6 -12 -6q-13 0 -13 18z" />
<glyph unicode="&#xf2;" horiz-adv-x="860" d="M82 256v614q0 121 73.5 194t192.5 73h164q119 0 192.5 -73t73.5 -194v-614q0 -121 -73.5 -193.5t-192.5 -72.5h-164q-119 0 -192.5 72.5t-73.5 193.5zM197 1384q-18 23 8 23h170q31 0 47 -27l82 -155q16 -27 -17 -27h-77q-33 0 -52 23zM276 246q0 -33 19.5 -52.5 t52.5 -19.5h164q33 0 52.5 19.5t19.5 52.5v635q0 33 -19.5 52t-52.5 19h-164q-33 0 -52.5 -19t-19.5 -52v-635z" />
<glyph unicode="&#xf3;" horiz-adv-x="860" d="M82 256v614q0 121 73.5 194t192.5 73h164q119 0 192.5 -73t73.5 -194v-614q0 -121 -73.5 -193.5t-192.5 -72.5h-164q-119 0 -192.5 72.5t-73.5 193.5zM276 246q0 -33 19.5 -52.5t52.5 -19.5h164q33 0 52.5 19.5t19.5 52.5v635q0 33 -19.5 52t-52.5 19h-164 q-33 0 -52.5 -19t-19.5 -52v-635zM356 1225l82 155q16 27 47 27h170q27 0 9 -23l-162 -163q-18 -23 -51 -23h-78q-33 0 -17 27z" />
<glyph unicode="&#xf4;" horiz-adv-x="860" d="M82 256v614q0 121 73.5 194t192.5 73h164q119 0 192.5 -73t73.5 -194v-614q0 -121 -73.5 -193.5t-192.5 -72.5h-164q-119 0 -192.5 72.5t-73.5 193.5zM207 1233l125 160q20 25 51 24h98q29 1 49 -24l125 -160q18 -25 -12 -25h-106q-31 0 -50 25l-55 86l-63 -86 q-18 -25 -47 -25h-103q-31 0 -12 25zM276 246q0 -33 19.5 -52.5t52.5 -19.5h164q33 0 52.5 19.5t19.5 52.5v635q0 33 -19.5 52t-52.5 19h-164q-33 0 -52.5 -19t-19.5 -52v-635z" />
<glyph unicode="&#xf5;" horiz-adv-x="860" d="M82 256v614q0 121 73.5 194t192.5 73h164q119 0 192.5 -73t73.5 -194v-614q0 -121 -73.5 -193.5t-192.5 -72.5h-164q-119 0 -192.5 72.5t-73.5 193.5zM215 1235v78q0 41 46 64.5t91 23.5q39 0 68 -15l57 -30q20 -10 45 -10q35 0 99 43q6 6 12 6q12 0 12 -19v-78 q0 -41 -46 -64.5t-91 -23.5q-39 0 -68 15l-57 30q-20 10 -45 11q-35 0 -98 -43q-6 -6 -13 -6q-12 0 -12 18zM276 246q0 -33 19.5 -52.5t52.5 -19.5h164q33 0 52.5 19.5t19.5 52.5v635q0 33 -19.5 52t-52.5 19h-164q-33 0 -52.5 -19t-19.5 -52v-635z" />
<glyph unicode="&#xf6;" horiz-adv-x="860" d="M82 256v614q0 121 73.5 194t192.5 73h164q119 0 192.5 -73t73.5 -194v-614q0 -121 -73.5 -193.5t-192.5 -72.5h-164q-119 0 -192.5 72.5t-73.5 193.5zM209 1270v51q0 27 16.5 44t44.5 17h52q27 0 44 -17t17 -44v-51q0 -29 -17.5 -45.5t-43.5 -16.5h-52q-29 0 -45 16.5 t-16 45.5zM276 246q0 -33 19.5 -52.5t52.5 -19.5h164q33 0 52.5 19.5t19.5 52.5v635q0 33 -19.5 52t-52.5 19h-164q-33 0 -52.5 -19t-19.5 -52v-635zM475 1270v51q0 27 16.5 44t45.5 17h51q27 0 44 -17t17 -44v-51q0 -29 -17.5 -45.5t-43.5 -16.5h-51q-29 0 -45.5 16.5 t-16.5 45.5z" />
<glyph unicode="&#xf7;" d="M102 676v102q0 41 41 41h594q41 0 41 -41v-102q0 -41 -41 -41h-594q-41 0 -41 41zM322 348v123q0 61 59 61h115q29 0 45 -16t16 -45v-123q0 -29 -16.5 -45t-44.5 -16h-115q-59 0 -59 61zM326 983v123q0 29 17 45t44 16h115q27 0 44 -16t17 -45v-123q0 -29 -17.5 -45 t-43.5 -16h-115q-27 0 -44 16t-17 45z" />
<glyph unicode="&#xf8;" horiz-adv-x="860" d="M82 256v614q0 121 73.5 194t192.5 73h164q20 0 57 -4l25 77q6 18 22 19h7l2 -2l34 -10q20 -6 17 -33l-27 -80q129 -68 129 -234v-614q0 -121 -73.5 -193.5t-192.5 -72.5h-164q-20 0 -57 4l-25 -78q-6 -18 -24 -18h-4q-2 2 -5 2l-32 10q-25 6 -17 33l27 80 q-129 68 -129 233zM276 246q1 -11 3 -15l231 721h-162q-33 0 -52.5 -19.5t-19.5 -51.5v-635zM350 174h162q33 0 52.5 19.5t19.5 52.5v635q0 10 -2 14z" />
<glyph unicode="&#xf9;" horiz-adv-x="901" d="M102 250v835q0 41 41 41h113q41 0 41 -41v-837q0 -43 26.5 -63.5t59.5 -20.5q78 0 221 127v794q0 41 41 41h113q41 0 41 -41v-1044q0 -41 -41 -41h-113q-41 0 -41 41v49q-150 -111 -270 -110q-96 0 -164 75.5t-68 194.5zM217 1384q-18 23 8 23h170q31 0 47 -27l82 -155 q16 -27 -16 -27h-78q-33 0 -51 23z" />
<glyph unicode="&#xfa;" horiz-adv-x="901" d="M102 250v835q0 41 41 41h113q41 0 41 -41v-837q0 -43 26.5 -63.5t59.5 -20.5q78 0 221 127v794q0 41 41 41h113q41 0 41 -41v-1044q0 -41 -41 -41h-113q-41 0 -41 41v49q-150 -111 -270 -110q-96 0 -164 75.5t-68 194.5zM377 1225l82 155q16 27 47 27h170q27 0 8 -23 l-162 -163q-18 -23 -51 -23h-78q-32 0 -16 27z" />
<glyph unicode="&#xfb;" horiz-adv-x="901" d="M102 250v835q0 41 41 41h113q41 0 41 -41v-837q0 -43 26.5 -63.5t59.5 -20.5q78 0 221 127v794q0 41 41 41h113q41 0 41 -41v-1044q0 -41 -41 -41h-113q-41 0 -41 41v49q-150 -111 -270 -110q-96 0 -164 75.5t-68 194.5zM227 1233l125 160q20 25 51 24h99q29 1 49 -24 l125 -160q18 -25 -12 -25h-107q-31 0 -49 25l-55 86l-64 -86q-18 -25 -47 -25h-102q-31 0 -13 25z" />
<glyph unicode="&#xfc;" horiz-adv-x="901" d="M102 250v835q0 41 41 41h113q41 0 41 -41v-837q0 -43 26.5 -63.5t59.5 -20.5q78 0 221 127v794q0 41 41 41h113q41 0 41 -41v-1044q0 -41 -41 -41h-113q-41 0 -41 41v49q-150 -111 -270 -110q-96 0 -164 75.5t-68 194.5zM229 1270v51q0 27 16.5 44t45.5 17h51 q27 0 44 -17t17 -44v-51q0 -29 -17 -45.5t-44 -16.5h-51q-29 0 -45.5 16.5t-16.5 45.5zM496 1270v51q0 27 16 44t45 17h51q27 0 44.5 -17t17.5 -44v-51q0 -29 -17.5 -45.5t-44.5 -16.5h-51q-29 0 -45 16.5t-16 45.5z" />
<glyph unicode="&#xfd;" horiz-adv-x="772" d="M23 1087q-10 39 30 39h119q43 0 49 -39l150 -647q12 -53 12 -121h4q0 70 12 121l150 647q10 39 51 39h119q41 0 31 -39l-340 -1355q-10 -39 -52 -39h-104q-41 0 -31 39l70 268zM311 1225l82 155q16 27 47 27h170q27 0 8 -23l-161 -163q-18 -23 -51 -23h-78q-33 0 -17 27z " />
<glyph unicode="&#xfe;" horiz-adv-x="870" d="M102 -266v1659q0 41 41 41h113q41 0 41 -41v-342q162 96 260 96q96 0 163.5 -76t67.5 -194v-627q0 -119 -67.5 -194.5t-163.5 -75.5q-98 0 -260 96v-342q0 -41 -41 -41h-113q-41 0 -41 41zM297 274q137 -111 211 -110q33 0 59.5 20.5t26.5 63.5v631q0 43 -26.5 63.5 t-59.5 20.5q-74 0 -211 -111v-578z" />
<glyph unicode="&#xff;" horiz-adv-x="772" d="M23 1087q-10 39 30 39h119q43 0 49 -39l150 -647q12 -53 12 -121h4q0 70 12 121l150 647q10 39 51 39h119q41 0 31 -39l-340 -1355q-10 -39 -52 -39h-104q-41 0 -31 39l70 268zM164 1270v51q0 27 16.5 44t44.5 17h51q27 0 44.5 -17t17.5 -44v-51q0 -29 -17.5 -45.5 t-44.5 -16.5h-51q-29 0 -45 16.5t-16 45.5zM430 1270v51q0 27 16.5 44t45.5 17h51q27 0 44 -17t17 -44v-51q0 -29 -17.5 -45.5t-43.5 -16.5h-51q-29 0 -45.5 16.5t-16.5 45.5z" />
<glyph unicode="&#x152;" horiz-adv-x="1290" d="M92 287v860q0 133 82 215t215 82h164q55 0 109 -17q10 7 24 7h512q41 0 41 -41v-123q0 -41 -41 -41h-348v-471h256q41 0 41 -41v-123q0 -41 -41 -41h-256v-348h348q41 0 41 -41v-123q0 -41 -41 -41h-512q-14 0 -24 6q-53 -16 -109 -16h-164q-133 0 -215 82t-82 215z M297 276q0 -37 22.5 -59t59.5 -22h184q37 0 59.5 22.5t22.5 58.5v881q0 37 -22.5 59.5t-59.5 22.5h-184q-37 0 -59.5 -22.5t-22.5 -59.5v-881z" />
<glyph unicode="&#x153;" horiz-adv-x="1341" d="M82 256v614q0 121 73.5 194t192.5 73h164q100 0 170 -54q66 53 168 54h143q121 0 194 -73t73 -194v-348q0 -41 -41 -41h-441v-235q0 -33 19.5 -52.5t52.5 -19.5h143q33 0 52.5 19.5t19.5 52.5v61q0 41 41 41h113q41 0 41 -41v-51q0 -121 -73 -193.5t-194 -72.5h-143 q-102 0 -168 53q-70 -53 -170 -53h-164q-119 0 -192.5 72.5t-73.5 193.5zM276 246q0 -33 19.5 -52.5t52.5 -19.5h164q33 0 52.5 19.5t19.5 52.5v635q0 33 -19.5 52t-52.5 19h-164q-33 0 -52.5 -19.5t-19.5 -51.5v-635zM778 666h287v215q0 33 -19.5 52t-52.5 19h-143 q-33 0 -52.5 -19.5t-19.5 -51.5v-215z" />
<glyph unicode="&#x178;" horiz-adv-x="837" d="M23 1395q-6 16 2 27.5t26 11.5h131q39 0 54 -39l163 -480q18 -51 19 -118h4q0 63 16 118l164 480q14 39 55 39h131q41 0 27 -39l-293 -842v-512q0 -41 -41 -41h-123q-41 0 -41 41v512zM199 1577v51q0 27 17 44.5t44 17.5h51q29 0 45.5 -17.5t16.5 -44.5v-51 q0 -29 -16.5 -45t-45.5 -16h-51q-27 0 -44 16t-17 45zM465 1577v51q0 27 17.5 44.5t43.5 17.5h52q29 0 45 -17.5t16 -44.5v-51q0 -29 -16.5 -45t-44.5 -16h-52q-27 0 -44 16t-17 45z" />
<glyph unicode="&#x2c6;" horiz-adv-x="542" d="M47 1458l125 160q20 25 49 24h98q32 1 52 -24l125 -160q18 -25 -13 -24h-108q-29 0 -47 24l-58 86l-61 -86q-18 -25 -49 -24h-101q-33 0 -12 24z" />
<glyph unicode="&#x2dc;" horiz-adv-x="512" d="M41 1460v78q0 41 46 64.5t91 23.5q39 0 68 -14l57 -31q20 -10 45 -10q35 0 98 43q6 6 13 6q12 0 12 -18v-78q0 -41 -46 -64.5t-91 -23.5q-39 0 -68 14l-57 31q-20 10 -45 10q-35 0 -98 -43q-6 -6 -13 -6q-12 0 -12 18z" />
<glyph unicode="&#x2000;" horiz-adv-x="911" />
<glyph unicode="&#x2001;" horiz-adv-x="1823" />
<glyph unicode="&#x2002;" horiz-adv-x="911" />
<glyph unicode="&#x2003;" horiz-adv-x="1823" />
<glyph unicode="&#x2004;" horiz-adv-x="607" />
<glyph unicode="&#x2005;" horiz-adv-x="455" />
<glyph unicode="&#x2006;" horiz-adv-x="303" />
<glyph unicode="&#x2007;" horiz-adv-x="303" />
<glyph unicode="&#x2008;" horiz-adv-x="227" />
<glyph unicode="&#x2009;" horiz-adv-x="364" />
<glyph unicode="&#x200a;" horiz-adv-x="101" />
<glyph unicode="&#x2010;" horiz-adv-x="573" d="M82 573v103q0 31 31 31h348q31 0 31 -31v-103q0 -31 -31 -30h-348q-31 -1 -31 30z" />
<glyph unicode="&#x2011;" horiz-adv-x="573" d="M82 573v103q0 31 31 31h348q31 0 31 -31v-103q0 -31 -31 -30h-348q-31 -1 -31 30z" />
<glyph unicode="&#x2012;" horiz-adv-x="573" d="M82 573v103q0 31 31 31h348q31 0 31 -31v-103q0 -31 -31 -30h-348q-31 -1 -31 30z" />
<glyph unicode="&#x2013;" horiz-adv-x="942" d="M82 573v103q0 31 31 31h716q31 0 31 -31v-103q0 -31 -31 -30h-716q-31 -1 -31 30z" />
<glyph unicode="&#x2014;" horiz-adv-x="1720" d="M82 573v103q0 31 31 31h1495q31 0 30 -31v-103q0 -31 -30 -30h-1495q-31 -1 -31 30z" />
<glyph unicode="&#x2018;" horiz-adv-x="403" d="M84 1042l78 342q10 49 61 50h51q52 -1 48 -52l-31 -338q-4 -29 -22.5 -45t-45.5 -16h-92q-27 0 -40 16.5t-7 42.5z" />
<glyph unicode="&#x2019;" horiz-adv-x="403" d="M82 1034l31 338q4 29 22.5 45.5t44.5 16.5h92q27 0 40.5 -16.5t6.5 -43.5l-77 -342q-10 -49 -62 -49h-51q-51 0 -47 51z" />
<glyph unicode="&#x201a;" horiz-adv-x="321" d="M41 -154l31 338q4 29 22.5 45.5t44.5 16.5h92q27 0 40.5 -16.5t7.5 -43.5l-78 -342q-10 -49 -62 -49h-51q-51 0 -47 51z" />
<glyph unicode="&#x201c;" horiz-adv-x="677" d="M84 1042l78 342q10 49 61 50h51q52 -1 48 -52l-31 -338q-4 -29 -22.5 -45t-45.5 -16h-92q-27 0 -40 16.5t-7 42.5zM358 1042l78 342q10 49 62 50h51q51 -1 47 -52l-31 -338q-4 -29 -22.5 -45t-44.5 -16h-92q-27 0 -40.5 16.5t-7.5 42.5z" />
<glyph unicode="&#x201d;" horiz-adv-x="677" d="M82 1034l31 338q4 29 22.5 45.5t44.5 16.5h92q27 0 40.5 -16.5t6.5 -43.5l-77 -342q-10 -49 -62 -49h-51q-51 0 -47 51zM356 1034l31 338q4 29 22.5 45.5t45.5 16.5h92q27 0 40 -16.5t7 -43.5l-78 -342q-10 -49 -61 -49h-52q-51 0 -47 51z" />
<glyph unicode="&#x201e;" horiz-adv-x="677" d="M82 -154l31 338q4 29 22.5 45.5t44.5 16.5h92q27 0 40.5 -16.5t6.5 -43.5l-77 -342q-10 -49 -62 -49h-51q-51 0 -47 51zM356 -154l31 338q4 29 22.5 45.5t45.5 16.5h92q27 0 40 -16.5t7 -43.5l-78 -342q-10 -49 -61 -49h-52q-51 0 -47 51z" />
<glyph unicode="&#x2022;" horiz-adv-x="583" d="M82 485v277q0 33 19.5 52.5t52.5 19.5h276q33 0 52.5 -19.5t19.5 -52.5v-277q0 -33 -19.5 -52t-52.5 -19h-276q-33 0 -52.5 19t-19.5 52z" />
<glyph unicode="&#x2026;" horiz-adv-x="1198" d="M82 61v123q0 29 16.5 45.5t44.5 16.5h113q27 0 44 -16.5t17 -45.5v-123q0 -29 -17 -45t-44 -16h-113q-29 0 -45 16t-16 45zM481 61v123q0 29 17.5 45.5t44.5 16.5h112q29 0 45.5 -16.5t16.5 -45.5v-123q0 -29 -16.5 -45t-45.5 -16h-112q-27 0 -44.5 16t-17.5 45zM881 61 v123q0 29 16 45.5t45 16.5h113q27 0 44 -16.5t17 -45.5v-123q0 -29 -17.5 -45t-43.5 -16h-113q-29 0 -45 16t-16 45z" />
<glyph unicode="&#x202f;" horiz-adv-x="364" />
<glyph unicode="&#x2039;" horiz-adv-x="550" d="M41 606v37q0 41 29 70l290 291q14 14 29 14q16 0 31 -14l57 -58q31 -30 0 -57l-264 -264l264 -265q31 -27 0 -57l-57 -57q-14 -14 -31 -15q-14 0 -29 15l-290 291q-29 29 -29 69z" />
<glyph unicode="&#x203a;" horiz-adv-x="550" d="M74 303q-27 31 0 57l264 265l-264 264q-27 27 0 57l59 58q12 14 28.5 14t28.5 -14l291 -291q29 -25 29 -70v-37q0 -45 -29 -69l-291 -291q-12 -14 -28.5 -14.5t-28.5 14.5z" />
<glyph unicode="&#x205f;" horiz-adv-x="455" />
<glyph unicode="&#x20ac;" horiz-adv-x="952" d="M20 543v82q0 41 41 41h82v102h-82q-41 0 -41 41v82q0 41 41 41h82v215q0 133 82 215t215 82h133q133 0 215 -82t82 -215v-123q0 -41 -41 -41h-122q-41 0 -41 41v133q0 37 -22.5 59.5t-59.5 22.5h-154q-37 0 -59.5 -22.5t-22.5 -59.5v-225h234q41 0 41 -41v-82 q0 -41 -41 -41h-234v-102h234q41 0 41 -41v-82q0 -41 -41 -41h-234v-226q0 -37 22.5 -59t59.5 -22h154q37 0 59.5 22.5t22.5 58.5v134q0 41 41 41h122q41 0 41 -41v-123q0 -133 -81.5 -215t-215.5 -82h-133q-133 0 -215 82t-82 215v215h-82q-41 0 -41 41z" />
<glyph unicode="&#x2122;" horiz-adv-x="1021" d="M10 1335v74q0 25 25 25h325q25 0 25 -25v-74q0 -25 -25 -24h-102v-570q0 -25 -25 -24h-73q-25 0 -25 24v570h-100q-25 0 -25 24zM489 741v668q0 25 25 25h86q27 0 33 -25l86 -270q8 -31 8 -74h6q0 43 8 74l86 272q6 23 33 23h86q25 0 25 -25v-668q0 -25 -25 -24h-67 q-25 0 -25 24v355q0 33 8 73l-4 2q-10 -57 -16 -73l-68 -213q-8 -23 -33 -23h-22q-23 0 -31 23l-72 215q-4 10 -14 71l-4 -2q8 -41 8 -73v-355q0 -25 -24 -24h-68q-25 -1 -25 24z" />
<glyph unicode="&#x25fc;" horiz-adv-x="1125" d="M0 0v1125h1125v-1125h-1125z" />
</font>
</defs>
</svg>
